<svg width="30" height="30" viewBox="0 0 30 30" fill="none" xmlns="http://www.w3.org/2000/svg">
<g clip-path="url(#clip0)">
<path d="M12.6646 25.1989L28.3933 9.47017C29.9417 7.92183 29.9417 5.41155 28.3933 3.86327L27.4183 2.88809C24.1558 -0.374419 18.8663 -0.374419 15.6038 2.88809L2.888 15.6037C-0.37445 18.8662 -0.37445 24.1558 2.888 27.4182L3.86318 28.3933C5.4114 29.9416 7.9218 29.9416 9.47008 28.3933L11.8246 26.0388" fill="#F6A230"/>
<path d="M3.24731 15.2444L7.10203 19.0991C7.83932 19.8364 9.03469 19.8364 9.77198 19.0991C10.5093 18.3618 10.5093 17.1664 9.77198 16.4292L5.91732 12.5744L3.24731 15.2444Z" fill="#C66500"/>
<path d="M7.93591 10.5558L11.7906 14.4105C12.5279 15.1478 13.7234 15.1478 14.4606 14.4105C15.1979 13.6732 15.1979 12.4777 14.4606 11.7405L10.6059 7.8858L7.93591 10.5558Z" fill="#C66500"/>
<path d="M12.6245 5.86718L16.4792 9.72195C17.2164 10.4592 18.4118 10.4592 19.1492 9.72195C19.8864 8.98455 19.8864 7.7893 19.1492 7.05195L15.2943 3.1973L12.6245 5.86718Z" fill="#C66500"/>
<path d="M28.7088 3.5489L27.7338 2.57367C24.3048 -0.855362 18.7265 -0.857237 15.295 2.56804L15.2949 2.56793L11.9952 5.86764L11.9952 5.8677L8.96022 8.90263L7.30653 10.5563L7.30659 10.5563L2.57367 15.2892C-0.857238 18.7202 -0.857238 24.3027 2.57367 27.7336L3.54885 28.7088C4.38176 29.5417 5.48918 30.0004 6.66721 30.0004C7.84524 30.0004 8.95267 29.5416 9.78564 28.7088L12.1401 26.3542L11.5102 25.7243L9.15575 28.0788C8.491 28.7436 7.60729 29.1096 6.66721 29.1096C5.72719 29.1096 4.84342 28.7436 4.17873 28.0788L3.20355 27.1037C0.119932 24.0201 0.119932 19.0027 3.20355 15.9191L3.24791 15.8747L6.78774 19.4145C7.22842 19.8552 7.81436 20.0979 8.43762 20.0979C9.06083 20.0979 9.64683 19.8552 10.0875 19.4145C10.9972 18.5048 10.9972 17.0244 10.0875 16.1147L6.5478 12.5749L7.93653 11.1861L11.4763 14.7259C11.9169 15.1665 12.5029 15.4092 13.1261 15.4093C13.1262 15.4093 13.1262 15.4093 13.1264 15.4093C13.7495 15.4093 14.3354 15.1666 14.7762 14.7259C15.6859 13.8161 15.6859 12.3358 14.7761 11.4261L11.2364 7.88637L12.6252 6.49758L16.1649 10.0374C16.6056 10.478 17.1915 10.7208 17.8148 10.7208C17.8148 10.7208 17.8148 10.7208 17.8148 10.7208C18.438 10.7208 19.024 10.4781 19.4648 10.0373C20.3743 9.12751 20.3743 7.64719 19.4647 6.73752L15.925 3.19793C19.0091 0.119991 24.0221 0.121808 27.1038 3.20343L28.0789 4.17867C28.7436 4.84336 29.1097 5.72707 29.1097 6.66709C29.1097 7.60712 28.7436 8.49089 28.0788 9.15563L12.3501 24.8844L12.9801 25.5143L28.7087 9.78558C29.5417 8.95261 30.0005 7.84512 30.0005 6.66715C30.0005 5.48918 29.5417 4.38176 28.7088 3.5489ZM9.45751 18.7846C9.18505 19.0571 8.82276 19.2071 8.43745 19.2071C8.05214 19.2071 7.68991 19.0571 7.41739 18.7846L3.87762 15.2449L5.91774 13.2048L9.45745 16.7445C10.02 17.307 10.02 18.2222 9.45751 18.7846ZM10.6064 8.51626L14.1461 12.056C14.7085 12.6184 14.7085 13.5335 14.1461 14.096C13.8737 14.3685 13.5114 14.5186 13.1262 14.5186C13.1262 14.5186 13.1261 14.5186 13.1261 14.5186C12.7407 14.5185 12.3785 14.3685 12.106 14.0961L8.56624 10.5564L10.0256 9.09698L10.6064 8.51626ZM18.8348 9.40747C18.5622 9.67993 18.2 9.82999 17.8146 9.82999C17.4293 9.82999 17.067 9.67993 16.7946 9.40747L13.2549 5.86776L15.2948 3.82781L18.8346 7.36741C19.3971 7.92979 19.3971 8.84497 18.8348 9.40747Z" fill="#53180F"/>
<path d="M13.3099 22.6634L22.6632 13.3101L22.0333 12.6802L12.68 22.0335L13.3099 22.6634Z" fill="#53180F"/>
</g>
<defs>
<clipPath id="clip0">
<rect width="30" height="30" fill="white"/>
</clipPath>
</defs>
</svg>
