<svg width="25" height="26" viewBox="0 0 25 26" fill="none" xmlns="http://www.w3.org/2000/svg">
<g clip-path="url(#clip0)">
<path d="M10.9336 10.0652C11.5106 10.0652 11.978 10.5513 11.978 11.1507C11.978 11.7502 11.5106 12.2363 10.9336 12.2363C10.3572 12.2363 9.88977 11.7502 9.88977 11.1507C9.88977 10.5513 10.3572 10.0652 10.9336 10.0652Z" fill="#E09B2D"/>
<path d="M14.8726 15.7999C15.7435 15.7999 16.4495 16.5347 16.4495 17.4404C16.4495 18.3468 15.7435 19.081 14.8726 19.081C14.0011 19.081 13.2952 18.3468 13.2952 17.4404C13.2952 16.5347 14.0011 15.7999 14.8726 15.7999Z" fill="#E09B2D"/>
<path d="M20.6207 12.5675C20.2486 12.9551 19.7339 13.1943 19.1654 13.1943C18.0292 13.1943 17.108 12.2363 17.108 11.0546C17.108 10.4634 17.338 9.92866 17.7107 9.54108L12.5001 4.1227L6.80221 10.048C7.58921 10.448 8.13081 11.2873 8.13081 12.2589C8.13081 13.6163 7.07272 14.7167 5.76751 14.7167C4.83327 14.7167 4.02572 14.1534 3.6422 13.335L0.427979 16.6772C2.18747 18.507 4.23517 19.8538 6.41926 20.7174C8.37336 21.4913 10.437 21.8777 12.5001 21.8777C16.8695 21.8777 21.2382 20.144 24.5717 16.6772L20.6207 12.5675ZM10.9336 12.2363C10.3851 12.2363 9.93539 11.7965 9.89316 11.2374C9.89087 11.2089 9.88973 11.1798 9.88973 11.1507C9.88973 10.8421 10.0136 10.5637 10.2122 10.3673C10.3994 10.1797 10.6539 10.0652 10.9336 10.0652C11.5105 10.0652 11.978 10.5513 11.978 11.1507C11.978 11.7502 11.5105 12.2363 10.9336 12.2363ZM14.8726 19.081C14.0011 19.081 13.2951 18.3468 13.2951 17.4404C13.2951 16.5347 14.0011 15.7999 14.8726 15.7999C15.7435 15.7999 16.4494 16.5347 16.4494 17.4404C16.4494 18.3468 15.7435 19.081 14.8726 19.081Z" fill="#F7B239"/>
<path d="M12.5001 4.1227L10.2122 10.3673L9.89316 11.2374L6.41926 20.7174C4.23517 19.8538 2.18747 18.507 0.427979 16.6772L3.6422 13.335C4.02572 14.1534 4.83327 14.7167 5.76751 14.7167C7.07272 14.7167 8.13081 13.6163 8.13081 12.2589C8.13081 11.2873 7.58921 10.448 6.80221 10.048L12.5001 4.1227Z" fill="#E09B2D"/>
<path d="M22.6776 17.0829C22.568 17.0829 22.4585 17.0395 22.3749 16.9525L20.7455 15.2576C20.5783 15.0838 20.5783 14.8019 20.7455 14.6281C20.9126 14.4543 21.1837 14.4543 21.3508 14.6282L22.9803 16.3231C23.1474 16.4969 23.1474 16.7788 22.9802 16.9526C22.8967 17.0395 22.7871 17.0829 22.6776 17.0829Z" fill="white"/>
<path d="M18.7737 14.9811C18.7571 14.9811 18.7404 14.9801 18.7236 14.978C17.7198 14.8564 16.7867 14.3075 16.1633 13.4719C16.0184 13.2776 16.0524 12.998 16.2391 12.8473C16.4258 12.6966 16.6948 12.7319 16.8397 12.9261C17.323 13.574 18.0458 13.9996 18.8226 14.0937C19.0574 14.1222 19.2256 14.3431 19.1982 14.5873C19.1729 14.8141 18.9879 14.9811 18.7737 14.9811Z" fill="white"/>
<path d="M16.0412 10.1806C15.9314 10.1806 15.8217 10.137 15.7381 10.0499L13.2581 7.46412C13.0911 7.29004 13.0914 7.00817 13.2588 6.83462C13.4263 6.66089 13.6973 6.66131 13.8641 6.83539L16.3442 9.42113C16.5112 9.59521 16.5108 9.87708 16.3434 10.0506C16.2599 10.1373 16.1505 10.1806 16.0412 10.1806Z" fill="white"/>
<path d="M12.5002 6.49838C12.7366 6.49838 12.9282 6.29908 12.9282 6.05323C12.9282 5.80738 12.7366 5.60808 12.5002 5.60808C12.2638 5.60808 12.0721 5.80738 12.0721 6.05323C12.0721 6.29908 12.2638 6.49838 12.5002 6.49838Z" fill="white"/>
<path d="M12.5003 22.3226C7.82565 22.3226 3.43081 20.4295 0.125384 16.9918C0.0450859 16.9083 0 16.7951 0 16.677C0 16.559 0.0451429 16.4457 0.125384 16.3622L3.33955 13.0201C3.43737 12.9183 3.57645 12.8723 3.71291 12.8958C3.84936 12.9195 3.9663 13.0105 4.02691 13.1397C4.35415 13.8379 5.02102 14.2714 5.76728 14.2714C6.83445 14.2714 7.70266 13.3685 7.70266 12.2587C7.70266 11.4828 7.28559 10.7889 6.61421 10.4479C6.48997 10.3848 6.40265 10.2632 6.37988 10.1213C6.35711 9.9794 6.40162 9.83488 6.49938 9.73315L12.1977 3.80759C12.3649 3.63374 12.6358 3.63386 12.803 3.80759L18.0133 9.22633C18.1805 9.40023 18.1805 9.68204 18.0133 9.85589C17.7057 10.1758 17.5363 10.6014 17.5363 11.0544C17.5363 11.9888 18.2673 12.749 19.1658 12.749C19.6013 12.749 20.0106 12.5728 20.3181 12.2529C20.4854 12.0791 20.7563 12.0791 20.9235 12.2529L24.8747 16.3621C25.0418 16.536 25.0418 16.8178 24.8747 16.9917C21.5693 20.4295 17.1746 22.3226 12.5003 22.3226ZM1.03715 16.6731C4.14356 19.7457 8.1973 21.4324 12.5003 21.4324C16.8029 21.4324 20.8565 19.7457 23.9629 16.6731L20.5949 13.1705C20.1795 13.4752 19.6848 13.6394 19.1657 13.6394C17.7952 13.6394 16.6802 12.4798 16.6802 11.0545C16.6802 10.5146 16.8381 10.0001 17.131 9.56803L12.5002 4.75196L7.48437 9.96783C8.15797 10.5109 8.55861 11.3454 8.55861 12.2588C8.55861 13.8595 7.30636 15.1618 5.76717 15.1618C4.88868 15.1618 4.08655 14.7452 3.56481 14.0448L1.03715 16.6731Z" fill="#333333"/>
<path d="M14.8723 19.5261C13.7665 19.5261 12.8669 18.5905 12.8669 17.4406C12.8669 16.2906 13.7665 15.355 14.8723 15.355C15.978 15.355 16.8776 16.2906 16.8776 17.4406C16.8776 18.5905 15.978 19.5261 14.8723 19.5261ZM14.8723 16.2454C14.2386 16.2454 13.723 16.7816 13.723 17.4406C13.723 18.0997 14.2386 18.6358 14.8723 18.6358C15.506 18.6358 16.0215 18.0997 16.0215 17.4406C16.0215 16.7816 15.506 16.2454 14.8723 16.2454Z" fill="#333333"/>
<path d="M10.9338 12.6818C10.122 12.6818 9.46167 11.995 9.46167 11.1508C9.46167 10.3066 10.122 9.61984 10.9338 9.61984C11.7455 9.61984 12.4058 10.3066 12.4058 11.1508C12.4058 11.995 11.7454 12.6818 10.9338 12.6818ZM10.9338 10.5101C10.5941 10.5101 10.3177 10.7975 10.3177 11.1508C10.3177 11.5041 10.5941 11.7915 10.9338 11.7915C11.2734 11.7915 11.5497 11.5041 11.5497 11.1508C11.5497 10.7975 11.2734 10.5101 10.9338 10.5101Z" fill="#333333"/>
<path d="M15.3989 14.708C15.6353 14.708 15.8269 14.5087 15.8269 14.2628C15.8269 14.017 15.6353 13.8177 15.3989 13.8177C15.1625 13.8177 14.9708 14.017 14.9708 14.2628C14.9708 14.5087 15.1625 14.708 15.3989 14.708Z" fill="#333333"/>
<path d="M6.83819 17.795C7.07458 17.795 7.26622 17.5957 7.26622 17.3498C7.26622 17.104 7.07458 16.9047 6.83819 16.9047C6.60179 16.9047 6.41016 17.104 6.41016 17.3498C6.41016 17.5957 6.60179 17.795 6.83819 17.795Z" fill="#333333"/>
</g>
<defs>
<clipPath id="clip0">
<rect width="25" height="26" fill="white"/>
</clipPath>
</defs>
</svg>
