<svg width="48" height="48" viewBox="0 0 48 48" fill="none" xmlns="http://www.w3.org/2000/svg">
<path d="M36.0211 17.9648H10.5447V20.962H36.0211V17.9648Z" fill="#FDD089"/>
<path d="M31.5253 17.9648H10.5447V20.962H31.5253V17.9648Z" fill="#F7931E"/>
<path d="M33.7438 16.4664C33.7438 10.6726 29.0629 5.97601 23.2691 5.97601C17.4754 5.97601 12.7944 10.6727 12.7944 16.4664V17.9889H33.7438V16.4664Z" fill="#00A99D"/>
<path d="M23.2833 5.98792C22.6428 5.98792 22.0188 6.06029 21.4101 6.17026C26.3084 7.05479 30.0272 12.8245 30.0272 17.9889H33.7737C33.7736 12.1425 29.0769 5.98792 23.2833 5.98792Z" fill="#66CBC4"/>
<path d="M12.7928 20.9297L15.0409 47.1231H31.5257L33.7736 20.9135" fill="#F7931E"/>
<path d="M23.2204 32.9944H30.0271L29.2777 44.9794H17.2888L16.5395 32.9944H20.1997" fill="#BF161C"/>
<path d="M27.7792 32.9944L27.0299 44.9794H29.2777L30.0271 32.9944H27.7792Z" fill="#FF1D25"/>
<path d="M30.7764 20.912L28.5285 47.123H31.5257L33.7736 20.912H30.7764Z" fill="#FDD089"/>
<path d="M33.7733 20.962H12.7927V23.21H33.7733V20.962Z" fill="#66CBC4"/>
<path d="M30.776 20.962H12.7927V23.21H30.776V20.962Z" fill="#00A99D"/>
<path d="M34.5234 0.0599976H28.5797V1.52156H34.5234V0.0599976Z" fill="#FF931E"/>
<path d="M38.2262 0.0599976H35.3031V1.52156H38.2262V0.0599976Z" fill="black"/>
<path d="M27.1182 37.4769H25.5591V38.9385H27.1182V37.4769Z" fill="black"/>
<path d="M25.5592 42.0566H24.0001V43.5182H25.5592V42.0566Z" fill="black"/>
<path d="M24.0001 39.036H22.5385V40.4976H24.0001V39.036Z" fill="black"/>
<path d="M23.2204 33.7739H29.2492L29.2066 34.4559H27.8001V35.9176H29.1152L28.9202 39.0356H27.1179V40.4972H28.8288L28.5912 44.2973H17.9753L17.9266 43.5178H18.8356V42.0563H17.8352L17.5489 37.4766H18.8356V36.015H17.4575L17.3173 33.7739H20.1998V32.3123H15.7615L16.6023 45.7589H29.9644L30.8049 32.3123H23.2204V33.7739Z" fill="black"/>
<path d="M36.7644 17.3067H23.5812L24.3368 6.7275C29.2246 7.25709 33.0428 11.4251 33.0428 16.4298H34.5044C34.5044 10.6789 30.0865 5.85516 24.441 5.26866L24.5908 3.17137C24.6595 2.21259 25.466 1.46166 26.4272 1.46166H27.7791V0H26.4272C24.703 0 23.256 1.34719 23.1331 3.06722L22.9798 5.21297C16.9322 5.37591 12.0621 10.3919 12.0621 16.4299H13.5237C13.5237 11.207 17.6822 6.89541 22.875 6.6795L22.1159 17.3068H16.5945V18.7684H22.0116L21.9072 20.2299H11.2354V18.7684H15.0355V17.3068H9.7738V21.6916H12.1184L14.3699 48H32.1966L34.4498 21.6915H36.7644V17.3067ZM21.8028 21.6915L21.7472 22.471H13.6521L13.5853 21.6915H21.8028ZM30.8549 46.5384H15.7118L13.7772 23.9326H21.6427L20.3064 42.6402L21.7642 42.7443L23.108 23.9325H32.7909L30.8549 46.5384ZM32.9162 22.471H23.2123L23.2679 21.6915H32.9827L32.9162 22.471ZM35.3028 20.2298H23.3724L23.4768 18.7683H35.3029V20.2298H35.3028Z" fill="black"/>
<path d="M30.7579 14.9682H29.2963C29.2963 12.4348 27.3129 10.4533 24.7795 10.4533V8.99176C28.0924 8.99167 30.7579 11.6553 30.7579 14.9682Z" fill="white"/>
</svg>
