<svg width="24" height="25" viewBox="0 0 24 25" fill="none" xmlns="http://www.w3.org/2000/svg">
<g clip-path="url(#clip0)">
<path d="M10.3034 22.8389L18.9001 13.884C21.8588 10.802 21.8588 5.78725 18.9001 2.70527C17.7357 1.49237 16.2839 0.75717 14.7709 0.498819C17.1024 0.100967 19.5791 0.836222 21.3734 2.70527C24.3321 5.7872 24.3321 10.802 21.3734 13.884L12.7768 22.8389C11.3307 24.3454 9.3043 24.8881 7.43994 24.4673C8.49008 24.2303 9.48885 23.6875 10.3034 22.8389Z" fill="#C13636"/>
<path d="M8.16852 2.70527C6.61823 4.32016 5.81657 6.54975 5.96446 8.82978C5.95227 9.54921 5.79613 11.2432 4.67563 12.4103C4.46076 12.6341 4.21635 12.8329 3.94804 13.0019C3.25752 13.305 2.63713 13.7404 2.10304 14.2968C-0.157835 16.6519 -0.157882 20.4839 2.1029 22.8388C4.36373 25.194 8.04262 25.194 10.3034 22.8389L18.9001 13.884C21.8587 10.802 21.8587 5.78725 18.9001 2.70527C15.9413 -0.376764 11.1272 -0.376764 8.16852 2.70527ZM17.3875 4.2809C19.5122 6.49409 19.5122 10.0953 17.3875 12.3084L9.66773 20.3458L8.79084 21.2634C7.36401 22.7497 5.04234 22.7496 3.61542 21.2633C2.18868 19.777 2.18873 17.3588 3.61551 15.8724C3.96576 15.5076 4.3739 15.2254 4.82854 15.0338C4.87584 15.0141 4.92159 14.9906 4.9657 14.9639C5.41616 14.6909 5.82749 14.3617 6.1881 13.9859C7.82788 12.278 8.0924 10.0097 8.10407 8.80956C8.10445 8.77836 8.10346 8.74716 8.10121 8.71606C7.98398 7.06542 8.55989 5.44887 9.68114 4.2809C11.8058 2.06757 15.2628 2.06772 17.3875 4.2809Z" fill="#D33D3D"/>
<path d="M9.68101 4.28091C8.55976 5.44888 7.98385 7.06539 8.10109 8.71607C8.10334 8.74717 8.10432 8.77842 8.10395 8.80958C8.09237 10.0097 7.82781 12.278 6.18798 13.9859C5.82737 14.3617 5.41599 14.6908 4.96557 14.9639C4.92146 14.9906 4.87576 15.0141 4.82842 15.0338C4.37378 15.2254 3.96568 15.5076 3.61539 15.8724C2.1886 17.3587 2.1886 19.777 3.61529 21.2633C5.04221 22.7496 7.36389 22.7498 8.79071 21.2634L9.6676 20.3458L17.3874 12.3085C19.5121 10.0953 19.5121 6.4941 17.3874 4.28091C15.2627 2.06773 11.8058 2.06758 9.68101 4.28091Z" fill="#E95353"/>
<g opacity="0.15">
<path opacity="0.15" d="M16.8584 11.0115L9.13855 19.0488L8.26166 19.9664C6.83484 21.4527 4.51316 21.4525 3.08624 19.9663C2.91374 19.7866 2.76262 19.593 2.63184 19.3893C2.77635 20.0765 3.10354 20.73 3.61551 21.2632C5.04243 22.7495 7.3641 22.7497 8.79093 21.2633L9.66782 20.3457L17.3876 12.3084C19.1729 10.4488 19.4578 7.60941 18.243 5.4368C18.7663 7.35433 18.305 9.50458 16.8584 11.0115Z" fill="#202020"/>
</g>
<path d="M11.3427 8.28852C11.3427 9.63647 12.3916 10.729 13.6855 10.729C14.9794 10.729 16.0284 9.63642 16.0284 8.28852C16.0284 6.94067 14.9794 5.8481 13.6855 5.8481C12.3916 5.8481 11.3427 6.94067 11.3427 8.28852ZM14.385 8.28852C14.385 8.69101 14.0718 9.01719 13.6856 9.01719C13.2992 9.01719 12.986 8.69096 12.986 8.28852C12.986 7.88613 13.2993 7.55996 13.6856 7.55996C14.0719 7.55996 14.385 7.88613 14.385 8.28852Z" fill="#FFF1CE"/>
<path d="M13.5343 -9.53674e-06C11.4041 -9.53674e-06 9.40361 0.861856 7.90117 2.42685C6.27925 4.11635 5.4362 6.45336 5.5862 8.83915C5.57336 9.48695 5.43058 11.0672 4.40833 12.132C4.22097 12.3271 4.00802 12.5016 3.77491 12.6509C3.0498 12.9733 2.39748 13.4332 1.83569 14.0185C-0.572469 16.5271 -0.572516 20.6088 1.83559 23.1173C3.00044 24.3307 4.55158 24.9989 6.20317 24.999C6.62523 24.999 7.04064 24.9551 7.4448 24.8699C9.48625 25.3003 11.5735 24.6493 13.0441 23.1174L21.6408 14.1625C23.1431 12.5975 23.9705 10.5137 23.9705 8.29467C23.9705 6.07567 23.1431 3.99184 21.6408 2.42685C19.8492 0.560732 17.288 -0.305771 14.7769 0.0999413C14.3695 0.0340729 13.9546 -9.53674e-06 13.5343 -9.53674e-06ZM2.37025 22.5604C0.25675 20.3589 0.256937 16.7768 2.37039 14.5753C2.86952 14.0553 3.44978 13.6481 4.09487 13.3649C4.11175 13.3575 4.12811 13.3488 4.14377 13.339C4.43772 13.1537 4.70659 12.935 4.94294 12.6889C6.16877 11.412 6.33006 9.56967 6.34253 8.83685C6.34277 8.82528 6.34244 8.81449 6.34173 8.80331C6.20153 6.63739 6.96452 4.51645 8.43592 2.98373C9.79548 1.56747 11.6061 0.787539 13.5344 0.787539C13.9254 0.787539 14.3114 0.820156 14.69 0.883097C14.6966 0.884609 14.7032 0.886318 14.7099 0.887442C15.8259 1.07797 16.8647 1.53056 17.7655 2.21205C17.7723 2.21718 17.7792 2.22231 17.7861 2.22748C17.8555 2.28036 17.924 2.33466 17.9917 2.39017C18.0007 2.3976 18.0096 2.40512 18.0185 2.41259C18.0805 2.46395 18.1417 2.51645 18.2021 2.57006C18.2095 2.57655 18.2169 2.58285 18.2242 2.58945C18.2872 2.64574 18.3492 2.70346 18.4105 2.7622C18.4239 2.77494 18.4371 2.78788 18.4503 2.80077C18.512 2.86068 18.5731 2.92143 18.633 2.98378C18.6764 3.02904 18.7191 3.0747 18.7612 3.12079C18.7696 3.12997 18.7777 3.13944 18.786 3.14867C18.8199 3.18617 18.8536 3.22372 18.8866 3.26171C18.8925 3.2685 18.8981 3.27548 18.904 3.28231C18.9394 3.32348 18.9745 3.36478 19.009 3.40653C19.0109 3.40878 19.0126 3.41103 19.0144 3.41332C20.0456 4.66762 20.615 6.19491 20.7226 7.75072C20.724 7.77191 20.725 7.79325 20.7263 7.81449C20.7286 7.85155 20.731 7.88856 20.7326 7.92562C20.7383 8.04818 20.7412 8.17118 20.7412 8.29472C20.7412 8.41825 20.7383 8.5414 20.7326 8.66391C20.7309 8.70038 20.7286 8.73686 20.7264 8.77333C20.7251 8.79516 20.724 8.81713 20.7226 8.83891C20.615 10.3939 20.0462 11.9204 19.016 13.1743C19.0135 13.1772 19.0112 13.1803 19.0087 13.1833C18.975 13.2243 18.9405 13.2647 18.9058 13.3051C18.8992 13.3127 18.8929 13.3204 18.8863 13.328C18.8539 13.3654 18.8207 13.4024 18.7874 13.4392C18.7785 13.4491 18.7699 13.459 18.761 13.4688C18.719 13.5149 18.6762 13.5605 18.6329 13.6057L10.0361 22.5605C9.99466 22.6037 9.95242 22.6458 9.90981 22.6874C9.89987 22.6971 9.88984 22.7068 9.87986 22.7164C9.79014 22.8027 9.69812 22.8859 9.60344 22.9654C9.60287 22.9659 9.60236 22.9663 9.60184 22.9668C8.9493 23.5143 8.18406 23.8965 7.35986 24.0825C7.35339 24.0839 7.3472 24.0859 7.34092 24.0876C6.97113 24.1692 6.59031 24.2114 6.20312 24.2114C4.75352 24.2115 3.39227 23.625 2.37025 22.5604ZM21.1061 2.98378C22.4657 4.39999 23.2144 6.28607 23.2144 8.29467C23.2144 10.3033 22.4657 12.1894 21.1061 13.6056L12.5095 22.5605C11.6099 23.4976 10.447 24.0593 9.21775 24.1855C9.58441 23.9717 9.93151 23.7175 10.2538 23.4251C10.2578 23.4215 10.2618 23.4177 10.2658 23.4141C10.31 23.3737 10.3538 23.3326 10.3971 23.2908C10.4083 23.2799 10.4196 23.2691 10.4307 23.2581C10.4779 23.212 10.5247 23.1652 10.5707 23.1173L19.1675 14.1624C19.2154 14.1125 19.2626 14.062 19.3091 14.0111C19.3187 14.0006 19.3279 13.9899 19.3375 13.9793C19.3745 13.9383 19.4114 13.8971 19.4476 13.8554C19.4544 13.8476 19.461 13.8396 19.4677 13.8318C19.5066 13.7867 19.5452 13.7412 19.583 13.6954C19.5851 13.6929 19.5871 13.6904 19.5892 13.6878C20.8237 12.1877 21.4972 10.2962 21.4972 8.29462C21.4972 6.29579 20.8255 4.40683 19.5942 2.90771C19.5902 2.90277 19.5863 2.89779 19.5822 2.89286C19.5469 2.85014 19.511 2.80785 19.4748 2.76576C19.4655 2.75483 19.4564 2.74374 19.4469 2.7329C19.4155 2.69667 19.3833 2.66098 19.3511 2.62523C19.3368 2.60922 19.3228 2.59306 19.3082 2.57714C19.277 2.54296 19.2451 2.50932 19.2132 2.47558C19.1979 2.45937 19.183 2.44286 19.1675 2.42675C19.0987 2.35507 19.0285 2.28539 18.9577 2.21669C18.9445 2.2039 18.9313 2.19101 18.918 2.17826C18.8482 2.11147 18.7774 2.04599 18.7057 1.98207C18.6955 1.97294 18.6851 1.964 18.6748 1.95497C18.6026 1.89125 18.5296 1.8288 18.4555 1.76801C18.452 1.76518 18.4486 1.7622 18.4451 1.75937C18.3665 1.69511 18.2867 1.6328 18.2061 1.57182C18.1978 1.56552 18.1895 1.55927 18.1812 1.55302C17.8417 1.29833 17.4856 1.07274 17.1151 0.878506C18.6102 1.12123 20.0159 1.84809 21.1061 2.98378Z" fill="#202020"/>
<path d="M13.6856 7.16615C13.0915 7.16615 12.608 7.66967 12.608 8.28852C12.608 8.90741 13.0915 9.41098 13.6856 9.41098C14.2797 9.41098 14.7631 8.90741 14.7631 8.28852C14.7631 7.66967 14.2797 7.16615 13.6856 7.16615ZM13.6856 8.62343C13.5083 8.62343 13.3641 8.47323 13.3641 8.28852C13.3641 8.10385 13.5083 7.9537 13.6856 7.9537C13.8629 7.9537 14.0071 8.10385 14.0071 8.28852C14.007 8.47323 13.8628 8.62343 13.6856 8.62343Z" fill="#202020"/>
<path d="M13.6855 5.45434C12.1851 5.45434 10.9646 6.72578 10.9646 8.28852C10.9646 9.85141 12.1852 11.1228 13.6855 11.1228C15.1857 11.1228 16.4063 9.85137 16.4063 8.28852C16.4063 6.72578 15.1857 5.45434 13.6855 5.45434ZM13.6855 10.3354C12.602 10.3354 11.7206 9.41719 11.7206 8.28857C11.7206 7.16001 12.602 6.24189 13.6855 6.24189C14.7689 6.24189 15.6503 7.16001 15.6503 8.28857C15.6503 9.41714 14.7689 10.3354 13.6855 10.3354Z" fill="#202020"/>
<path d="M7.35349 22.5987C7.47836 22.5602 7.60188 22.5154 7.72338 22.4642C8.20952 22.2592 8.66477 21.9518 9.05828 21.5418C9.20585 21.388 9.20589 21.1387 9.05824 20.985C9.049 20.9753 9.03944 20.9663 9.0295 20.9579C8.91316 20.8591 8.75369 20.8435 8.62347 20.9106C8.58747 20.9291 8.55363 20.9537 8.52363 20.985C7.24427 22.3177 5.16241 22.3176 3.88286 20.9849C2.6035 19.6522 2.6035 17.4837 3.88291 16.1509C3.96147 16.069 4.04327 15.9918 4.12811 15.9194C4.38269 15.7021 4.66469 15.5277 4.96952 15.3992C5.03247 15.3728 5.09505 15.341 5.15585 15.3042C5.21566 15.2679 5.27482 15.2308 5.33332 15.1926C5.74277 14.9259 6.1195 14.6143 6.45536 14.2644C8.1903 12.4574 8.46986 10.0736 8.482 8.81405C8.48271 8.77162 8.48116 8.72836 8.47816 8.68695C8.36913 7.15126 8.90486 5.64633 9.94839 4.55937C10.9046 3.56322 12.1781 3.01474 13.5343 3.01474C14.8906 3.01474 16.1641 3.56327 17.1203 4.55937C18.0765 5.55541 18.6031 6.88193 18.6031 8.29472C18.6031 9.70751 18.0765 11.034 17.1204 12.03L9.40052 20.0673C9.38205 20.0865 9.36588 20.1072 9.35205 20.129C9.31052 20.1946 9.28971 20.2701 9.28971 20.3457C9.28971 20.4465 9.32655 20.5473 9.40038 20.6242C9.54794 20.778 9.78733 20.7781 9.93494 20.6243L17.6549 12.5869C18.6508 11.5494 19.2413 10.2002 19.3433 8.74833C19.3538 8.59814 19.3592 8.44682 19.3592 8.29467C19.3592 6.67157 18.7539 5.14726 17.6549 4.00243C16.5558 2.85766 15.0925 2.22724 13.5343 2.22724C11.9762 2.22719 10.5128 2.85771 9.41378 4.00243C8.21467 5.25155 7.59925 6.9808 7.72422 8.74584C7.72558 8.76523 7.72614 8.78466 7.726 8.80566C7.71499 9.94565 7.46575 12.0983 5.9208 13.7076C5.58302 14.0595 5.19766 14.3677 4.77597 14.6234C4.74686 14.6411 4.71714 14.6562 4.68682 14.6689C4.18507 14.8803 3.73464 15.1916 3.34821 15.594C3.24982 15.6965 3.15757 15.8031 3.0715 15.913C1.78024 17.5633 1.87244 20.0044 3.34816 21.5417C4.33211 22.5666 5.70171 22.951 6.97483 22.6948C7.10224 22.6691 7.22861 22.6371 7.35349 22.5987Z" fill="#202020"/>
</g>
<defs>
<clipPath id="clip0">
<rect width="25" height="24" fill="white" transform="translate(0 25) rotate(-90)"/>
</clipPath>
</defs>
</svg>
