<svg width="43" height="44" viewBox="0 0 43 44" fill="none" xmlns="http://www.w3.org/2000/svg">
<g clip-path="url(#clip0)">
<path d="M34.9526 18.1323H32.4046V11.0233C33.9963 12.9559 34.9526 15.4322 34.9526 18.1323Z" fill="#E54728"/>
<path d="M27.0233 7.42831V23.4635C26.4276 23.7675 25.7545 23.9384 25.0445 23.9384H24.1911V6.95438C25.1729 6.99025 26.1217 7.15358 27.0233 7.42831Z" fill="#E54728"/>
<path d="M18.8098 6.95438V23.9384H17.9563C17.2464 23.9384 16.5733 23.7675 15.9775 23.4635V7.42831C16.8791 7.15358 17.8279 6.99025 18.8098 6.95438Z" fill="#E54728"/>
<path d="M10.5972 11.0224V18.1323H8.04822C8.04822 15.4322 9.00457 12.9549 10.5972 11.0224Z" fill="#E54728"/>
<path d="M15.9776 4.47617V23.4635C14.6766 22.7999 13.7467 21.4999 13.6136 19.9544L13.4569 18.1323H10.5972V6.17551L13.1462 5.37021L15.9776 4.47617Z" fill="#F7B239"/>
<path d="M32.4046 3.83038V18.1323H29.544L29.3864 19.9544C29.2532 21.4998 28.3233 22.7998 27.0233 23.4635V5.38812L29.5723 4.64985L32.4046 3.83038Z" fill="#F7B239"/>
<path d="M24.1911 1.18646V23.9369H18.8098V2.31936L21.3588 1.78322L24.1911 1.18646Z" fill="#F7B239"/>
<path d="M33.9104 28.3284L32.9559 37.6739H10.0449L9.08954 28.3284H9.09048H33.9104Z" fill="#E6E6E6"/>
<path d="M32.9559 37.6738L32.4348 42.7719H10.5661L10.0449 37.6738H32.9559Z" fill="#F95428"/>
<path d="M13.1463 5.3703V18.1323H10.5972V6.17551L13.1463 5.3703Z" fill="#E09B2D"/>
<path d="M21.3588 1.78384V23.9376H18.8098V2.31999L21.3588 1.78384Z" fill="#E09B2D"/>
<path d="M29.5723 4.64987V18.1323H29.544L29.3864 19.9544C29.2532 21.4998 28.3233 22.7998 27.0233 23.4635V5.38814L29.5723 4.64987Z" fill="#E09B2D"/>
<path d="M34.9527 18.1323L33.9104 28.3284H9.09048H9.08954L8.04727 18.1323H8.04822H10.5972H13.4569L13.6136 19.9544C13.7467 21.4998 14.6766 22.7998 15.9776 23.4635C16.5733 23.7675 17.2464 23.9384 17.9564 23.9384H18.8098H24.1911H25.0445C25.7545 23.9384 26.4276 23.7675 27.0233 23.4635C28.3233 22.7998 29.2532 21.4998 29.3864 19.9544L29.544 18.1323H32.4046H34.9527Z" fill="#F95428"/>
<path d="M14.3877 37.6738H10.0449L9.08954 28.3284H13.4323L14.3877 37.6738Z" fill="#CCCCCC"/>
<path d="M14.9089 42.7719H10.5661L10.045 37.6738H14.3877L14.9089 42.7719Z" fill="#E54728"/>
<path d="M12.3901 18.1323L13.4323 28.3284H9.08954L8.04727 18.1323H12.3901Z" fill="#E54728"/>
<path d="M30.475 41.3087C30.4509 41.3087 30.4266 41.3074 30.4022 41.3049C30.0131 41.2651 29.73 40.9175 29.7697 40.5286L31.6028 22.5886C31.6425 22.1997 31.9907 21.9159 32.3792 21.9563C32.7682 21.996 33.0514 22.3436 33.0115 22.7327L31.1785 40.6725C31.1412 41.037 30.8336 41.3087 30.475 41.3087Z" fill="white"/>
<path d="M32.5486 21.0398C32.9397 21.0398 33.2567 20.723 33.2567 20.3322C33.2567 19.9414 32.9397 19.6246 32.5486 19.6246C32.1576 19.6246 31.8406 19.9414 31.8406 20.3322C31.8406 20.723 32.1576 21.0398 32.5486 21.0398Z" fill="white"/>
<path d="M35.6602 18.1214C35.6578 15.458 34.755 12.8594 33.1122 10.7735V3.83013C33.1122 3.60752 33.0075 3.39784 32.8295 3.26416C32.6515 3.13038 32.421 3.08827 32.2073 3.15002L26.826 4.70766C26.5231 4.79527 26.3148 5.07254 26.3148 5.38777V6.5134C25.8482 6.41135 25.3754 6.33714 24.8987 6.29211V1.18765C24.8987 0.974284 24.8024 0.77225 24.6368 0.637813C24.471 0.503376 24.2536 0.450885 24.0448 0.494785L18.6636 1.62768C18.3359 1.6967 18.1014 1.98568 18.1014 2.32055V6.29211C17.6246 6.33714 17.1518 6.41135 16.6852 6.5134V4.47645C16.6852 4.25082 16.5777 4.03868 16.3958 3.90538C16.2138 3.77198 15.9792 3.73327 15.764 3.80124L10.3837 5.5005C10.0891 5.59349 9.88888 5.8668 9.88888 6.1757V10.7723C8.24439 12.8593 7.34118 15.4602 7.33996 18.1264C7.33977 18.1522 7.34081 18.1782 7.34345 18.2043L9.8616 42.8436C9.89851 43.2049 10.2028 43.4796 10.566 43.4796H32.4346C32.7978 43.4796 33.1021 43.2048 33.139 42.8436L35.6571 18.2043C35.6598 18.1765 35.6606 18.1489 35.6602 18.1214ZM34.2177 17.4242H33.1122V13.3965C33.7442 14.6461 34.122 16.0176 34.2177 17.4242ZM31.696 4.77223V17.4243H29.5438C29.1764 17.4243 28.8699 17.7053 28.8383 18.0714L28.681 19.8939C28.6082 20.736 28.2608 21.4861 27.7309 22.0609V5.91995L31.696 4.77223ZM26.3148 7.96757V23.0055C25.9191 23.1504 25.4914 23.23 25.0442 23.23H24.8987V7.71513C25.3766 7.76639 25.8498 7.85107 26.3148 7.96757ZM23.4825 2.06026V23.23H19.5174V2.89502L23.4825 2.06026ZM18.1014 7.71513V23.23H17.956C17.5088 23.23 17.0809 23.1504 16.6852 23.0054V7.96757C17.1502 7.85107 17.6234 7.76639 18.1014 7.71513ZM15.2691 5.44263V22.0605C14.7394 21.4857 14.3921 20.7358 14.3193 19.8938L14.1618 18.0712C14.1302 17.7052 13.8238 17.4242 13.4564 17.4242H11.3048V6.69467L15.2691 5.44263ZM9.8887 17.4242H8.78223C8.87796 16.0164 9.25607 14.6443 9.8887 13.3943V17.4242ZM9.87378 29.0362H33.1264L32.316 36.9655H10.6842L9.87378 29.0362ZM11.2052 42.0635L10.8289 38.3816H32.1714L31.7951 42.0635H11.2052ZM33.2712 27.6201H9.72905L8.8318 18.8404H12.8069L12.9084 20.0158C13.0179 21.2825 13.5941 22.4537 14.5311 23.3133C15.4681 24.1727 16.6844 24.6462 17.956 24.6462H25.0442C26.3158 24.6462 27.5321 24.1728 28.4691 23.3133C29.4061 22.4538 29.9823 21.2826 30.0919 20.0158L30.1933 18.8404H34.1683L33.2712 27.6201Z" fill="#333333"/>
</g>
<defs>
<clipPath id="clip0">
<rect width="43" height="43" fill="white" transform="translate(0 0.479553)"/>
</clipPath>
</defs>
</svg>
