<svg width="58" height="58" viewBox="0 0 58 58" fill="none" xmlns="http://www.w3.org/2000/svg">
<g clip-path="url(#clip0)">
<path d="M35.2926 20.1476C38.4113 14.2313 37.5269 7.63624 33.3173 5.41723C29.1077 3.19821 23.1669 6.1955 20.0482 12.1118C16.9296 18.0282 17.8139 24.6232 22.0235 26.8422C26.2331 29.0612 32.1739 26.064 35.2926 20.1476Z" fill="#FF8D36"/>
<path opacity="0.2" d="M33.3187 5.41744C32.8155 5.15213 32.2874 4.96227 31.7425 4.84219C33.9228 7.87417 33.9518 12.9546 31.4947 17.6156C28.7487 22.8248 23.8153 25.77 19.8018 24.8854C20.389 25.7021 21.1309 26.3717 22.0243 26.8427C26.2338 29.0617 32.1745 26.0644 35.2933 20.1481C38.4122 14.2317 37.5282 7.6365 33.3187 5.41744Z" fill="black"/>
<path d="M49.7992 21.1337C52.9179 15.2174 52.0335 8.62235 47.8239 6.40333C43.6143 4.18432 37.6736 7.1816 34.5549 13.098C31.4362 19.0143 32.3206 25.6093 36.5302 27.8283C40.7398 30.0473 46.6805 27.0501 49.7992 21.1337Z" fill="#69B551"/>
<path opacity="0.2" d="M47.9191 6.45837C49.6875 9.53294 49.5619 14.2503 47.2676 18.6026C44.1488 24.5189 38.208 27.5162 33.9984 25.2972C33.9664 25.2803 33.9363 25.2608 33.9047 25.2435C34.5402 26.3484 35.4182 27.2431 36.5309 27.8297C40.7405 30.0487 46.6813 27.0514 49.8001 21.1351C52.8952 15.2638 52.0463 8.72627 47.9191 6.45837Z" fill="black"/>
<path d="M10.9494 16.4425C12.7301 11.8925 8.97255 5.72048 5.74109 7.63051C2.50963 9.54055 6.10461 15.8084 10.9494 16.4425Z" fill="#8FE673"/>
<path d="M10.9494 16.4425C8.99113 11.966 1.96984 10.2589 1.0355 13.8944C0.101157 17.5299 7.0752 19.42 10.9494 16.4425Z" fill="#76CC5B"/>
<path d="M10.9494 16.4425C7.97193 12.5683 9.86214 5.59416 13.4976 6.52862C17.133 7.46308 15.426 14.4843 10.9494 16.4425Z" fill="#76CC5B"/>
<path d="M11.7455 16.9589C11.7704 16.9204 11.7929 16.8805 11.8118 16.8389C11.8148 16.8326 11.8172 16.826 11.82 16.8195C11.8397 16.7738 11.8568 16.727 11.8693 16.6787L13.4408 10.5647C13.5713 10.0567 13.2655 9.53908 12.7574 9.40858C12.2493 9.27774 11.7318 9.58394 11.6013 10.0919L10.6004 13.9856L8.55489 10.5248C8.28811 10.0733 7.70562 9.92355 7.2542 10.1904C6.80266 10.4572 6.65301 11.0397 6.91979 11.4911L8.96542 14.9521L5.07172 13.9513C4.56365 13.8204 4.04607 14.1266 3.91557 14.6346C3.78507 15.1426 4.09093 15.6602 4.599 15.7907L10.7104 17.3616H10.7106L10.7131 17.3623C10.7378 17.3686 10.7626 17.3721 10.7873 17.3764C10.8016 17.3789 10.8155 17.3828 10.83 17.3846C10.8307 17.3847 10.8314 17.3848 10.8322 17.3849C10.8718 17.3899 10.9111 17.3924 10.9503 17.3924C10.9524 17.3924 10.9543 17.392 10.9563 17.392C11.0017 17.3917 11.047 17.3874 11.0924 17.3805C11.1076 17.3783 11.1224 17.3745 11.1374 17.3716C11.1693 17.3651 11.2009 17.3573 11.2323 17.3474C11.2485 17.3423 11.2645 17.3369 11.2804 17.331C11.3096 17.3201 11.3382 17.3073 11.3665 17.2934C11.3821 17.2858 11.3977 17.2786 11.4128 17.2701C11.4193 17.2664 11.4261 17.2638 11.4328 17.26C11.4643 17.2414 11.494 17.2209 11.5224 17.1994C11.5239 17.1982 11.5256 17.1975 11.5271 17.1963C11.5305 17.1937 11.5333 17.1903 11.5366 17.1877C11.5708 17.1609 11.6025 17.1321 11.6322 17.1015C11.6365 17.0971 11.641 17.093 11.6452 17.0884C11.6765 17.0548 11.7045 17.0189 11.7302 16.9818C11.7354 16.9744 11.7405 16.9668 11.7455 16.9589Z" fill="#599944"/>
<path d="M13.9426 29.2198C18.2525 29.2198 21.7464 25.7259 21.7464 21.4159C21.7464 17.106 18.2525 13.6121 13.9426 13.6121C9.63261 13.6121 6.13872 17.106 6.13872 21.4159C6.13872 25.7259 9.63261 29.2198 13.9426 29.2198Z" fill="#FF704D"/>
<path opacity="0.2" d="M13.9429 13.6124C13.2876 13.6124 12.6517 13.6942 12.0435 13.8465C15.4351 14.6948 17.9476 17.7615 17.9476 21.4159C17.9476 25.0704 15.4351 28.137 12.0435 28.9854C12.6517 29.1374 13.2876 29.2194 13.9429 29.2194C18.2527 29.2194 21.7464 25.7257 21.7464 21.4159C21.7464 17.1062 18.2527 13.6124 13.9429 13.6124Z" fill="black"/>
<path d="M20.5992 35.1166C25.6028 35.1166 29.6591 31.1216 29.6591 26.1935C29.6591 21.2653 25.6028 17.2703 20.5992 17.2703C15.5955 17.2703 11.5393 21.2653 11.5393 26.1935C11.5393 31.1216 15.5955 35.1166 20.5992 35.1166Z" fill="#FFC552"/>
<path opacity="0.2" d="M21.5319 17.3165C24.1282 18.8858 25.8605 21.7069 25.8605 24.9272C25.8605 29.8558 21.8041 33.8511 16.8003 33.8511C16.4852 33.8511 16.1742 33.8352 15.8673 33.8042C17.2446 34.6366 18.8646 35.1173 20.5989 35.1173C25.6027 35.1173 29.6592 31.122 29.6592 26.1933C29.6593 21.5752 26.0973 17.7765 21.5319 17.3165Z" fill="black"/>
<path d="M31.2672 33.6744C36.4345 33.6744 40.6235 29.5485 40.6235 24.4588C40.6235 19.3691 36.4345 15.2431 31.2672 15.2431C26.0999 15.2431 21.911 19.3691 21.911 24.4588C21.911 29.5485 26.0999 33.6744 31.2672 33.6744Z" fill="#9773BF"/>
<path opacity="0.2" d="M34.4469 15.7904C35.925 17.42 36.8247 19.5694 36.8247 21.9266C36.8247 27.0162 32.6356 31.1421 27.4683 31.1421C26.3517 31.1421 25.2813 30.9487 24.2885 30.5953C26.0019 32.4843 28.4929 33.6745 31.267 33.6745C36.4344 33.6745 40.6233 29.5486 40.6233 24.459C40.6233 20.4693 38.0487 17.0725 34.4469 15.7904Z" fill="black"/>
<path d="M55.25 25.5513C55.25 23.654 53.712 22.1161 51.8148 22.1161C51.1856 22.1161 50.5964 22.2862 50.0892 22.5815C49.6326 21.2203 48.3476 20.2391 46.8326 20.2391C46.2033 20.2391 45.6142 20.409 45.1069 20.7044C44.6503 19.3432 43.3653 18.362 41.8503 18.362C40.3353 18.362 39.0502 19.3432 38.5937 20.7044C38.0864 20.409 37.4972 20.2391 36.868 20.2391C35.353 20.2391 34.0679 21.2203 33.6113 22.5815C33.1041 22.2861 32.5149 22.1161 31.8857 22.1161C29.9885 22.1161 28.4506 23.6542 28.4506 25.5513V30.7136H55.2501V25.5513H55.25Z" fill="#8FE673"/>
<g opacity="0.2">
<path opacity="0.2" d="M51.8147 22.1162C51.3677 22.1162 50.9418 22.2034 50.5503 22.359C51.8197 22.8636 52.7175 24.1024 52.7175 25.5515V30.7138H55.25V25.5515C55.25 23.654 53.712 22.1162 51.8147 22.1162Z" fill="black"/>
</g>
<path d="M29.6593 29.4474L5.12088 32.937V53.3145H54.263V32.937L29.6593 29.4474Z" fill="#F2AE5D"/>
<path opacity="0.2" d="M5.12088 32.937V36.7137H54.263V32.937L29.6593 29.4474L5.12088 32.937Z" fill="black"/>
<path d="M57.05 25.9795H2.26868V32.9147H57.05V25.9795Z" fill="#F2AE5D"/>
<path d="M40.3546 5.86627C39.198 6.44978 38.1023 7.23222 37.1009 8.17574C36.3518 6.58334 35.2176 5.35764 33.7619 4.59027C31.115 3.19487 27.8137 3.53868 24.7047 5.53379C24.2633 5.81699 24.135 6.40447 24.4185 6.84604C24.7019 7.28761 25.2891 7.41562 25.7307 7.1323C28.2472 5.51748 30.8515 5.20324 32.8764 6.27057C34.1608 6.94765 35.1226 8.12907 35.6788 9.70424C35.706 9.78127 35.1927 10.3284 35.1337 10.4084C34.5277 11.2309 33.979 12.126 33.5224 13.0509C33.4704 13.1564 32.9322 14.4382 32.9053 14.4341C29.7993 13.9548 26.5863 14.8871 24.2653 17.0163C24.2507 17.0107 24.236 17.0058 24.2212 17.0002C23.224 16.6163 22.1666 16.3959 21.0994 16.3456C21.0883 16.3451 21.0772 16.3439 21.066 16.3434C21.0645 16.3413 21.0628 16.3392 21.0614 16.3371C20.9761 16.2176 20.8876 16.1012 20.7971 15.9868C20.7935 15.9822 20.7897 15.9775 20.7861 15.9729C20.5016 15.6151 20.1927 15.283 19.8619 14.9783C20.1339 14.1572 20.4786 13.3487 20.8903 12.5679C21.5307 11.3532 22.3082 10.2457 23.2018 9.27626C23.5573 8.89065 23.5328 8.2897 23.1471 7.93433C22.7614 7.57874 22.1605 7.60333 21.8052 7.98905C20.8001 9.07938 19.927 10.322 19.21 11.6821C18.8454 12.3738 18.5281 13.0857 18.26 13.8092C17.457 13.3537 16.582 13.0268 15.6635 12.8447C16.4705 11.047 16.6525 9.14871 16.1015 7.73802C15.6794 6.65731 14.8387 5.90581 13.7344 5.62204C13.4373 5.54557 13.1381 5.50694 12.8455 5.50694C11.587 5.50694 10.463 6.21495 9.67331 7.45719C8.84987 6.72732 7.92991 6.33741 6.99523 6.33741C6.39121 6.33741 5.80668 6.50178 5.25817 6.8261C3.84816 7.65951 3.29365 9.21543 3.68844 10.9978C1.8449 11.1115 0.521999 12.0925 0.116339 13.671C-0.158935 14.742 0.0564129 15.7735 0.739159 16.6539C1.69276 17.8837 3.50673 18.6934 5.5791 18.848C5.32671 19.6643 5.19021 20.5311 5.19021 21.4292C5.19021 22.6915 5.45698 23.9162 5.97003 25.0433H2.26936C1.74487 25.0433 1.31973 25.4686 1.31973 25.993V32.9281C1.31973 33.4526 1.74498 33.8778 2.26936 33.8778H4.13907V53.3054C4.13907 53.8299 4.56433 54.255 5.08871 54.255H54.2307C54.7553 54.255 55.1803 53.8298 55.1803 53.3054V33.8777H57.0501C57.5747 33.8777 57.9998 33.4524 57.9998 32.928V25.9928C57.9998 25.4683 57.5747 25.0432 57.0501 25.0432H56.1681C55.9094 22.8704 54.0567 21.1796 51.8153 21.1796C51.467 21.1796 51.1218 21.2234 50.7858 21.3045C51.4458 19.9971 51.938 18.6339 52.2457 17.2461C52.3592 16.7341 52.0362 16.2269 51.5242 16.1132C51.0124 16.0001 50.5049 16.3228 50.3914 16.8348C50.1487 17.929 49.7778 19.0083 49.2862 20.0521C49.2756 20.045 49.2645 20.039 49.254 20.032C48.5468 19.5591 47.6825 19.3031 46.8328 19.3027C46.4037 19.3027 45.9785 19.3659 45.5708 19.4885C44.7829 18.2243 43.3885 17.4256 41.8505 17.4256C40.9733 17.4256 40.0959 17.7005 39.3717 18.1947C38.1642 16.6734 36.569 15.5434 34.7664 14.905C34.748 14.8985 35.3826 13.5804 35.4442 13.4652C37.4853 9.64533 42.6386 4.75736 47.3827 7.25793C49.3783 8.30997 50.5891 10.597 50.7049 13.5327C50.7255 14.0568 51.1664 14.4647 51.6914 14.4442C52.2155 14.4234 52.6234 13.9819 52.6028 13.4577C52.4595 9.82647 50.8797 6.95445 48.2685 5.57774C45.9536 4.35703 43.1431 4.45966 40.3546 5.86627ZM20.5613 18.2333C20.5741 18.2333 20.5868 18.2324 20.5994 18.2324C21.3339 18.2324 22.0585 18.3274 22.7672 18.5207C22.792 18.5274 22.8169 18.5338 22.8417 18.5409C22.8575 18.5453 22.873 18.5508 22.8888 18.5555C22.2453 19.4391 21.7551 20.4128 21.4296 21.4415C21.4256 21.4542 21.4219 21.467 21.418 21.4798C21.079 22.5657 20.9263 23.7076 20.9696 24.8444C20.9708 24.8763 20.9722 24.9081 20.9738 24.94C20.9755 24.9744 20.9763 25.0089 20.9783 25.0434H12.5798C12.5851 25.0072 12.5899 24.9707 12.5957 24.9347C12.867 23.2637 13.6971 21.701 14.9118 20.5245C16.4269 19.0573 18.4322 18.2437 20.5613 18.2333ZM18.1584 16.0232C18.1662 16.0298 18.173 16.0376 18.1811 16.0439C18.3664 16.19 18.5423 16.3459 18.7108 16.509C15.8104 17.0544 13.2402 18.9031 11.8074 21.4853C11.229 22.5275 10.8418 23.7039 10.6819 24.8971C10.6762 24.9398 10.6691 24.982 10.6638 25.0249C10.663 25.0311 10.6619 25.0371 10.6614 25.0433H8.12102C7.44496 23.9589 7.08982 22.7189 7.08982 21.4292C7.08982 19.0682 8.35528 16.8228 10.3635 15.5875C10.3738 15.5812 10.3837 15.5744 10.3939 15.5681C12.7311 14.1562 16.0202 14.2221 18.1584 16.0232ZM2.24025 15.49C1.9217 15.0792 1.8287 14.6388 1.9558 14.1438C2.22303 13.1044 3.24392 12.8861 4.05343 12.8861C4.32021 12.8861 4.60296 12.9109 4.89375 12.9598C5.24322 13.0186 5.59723 12.8774 5.81042 12.5937C6.0235 12.3099 6.06077 11.9312 5.90694 11.6114C5.64662 11.0704 4.89998 9.24421 6.22492 8.46121C6.48048 8.31031 6.73242 8.23679 6.99557 8.23679C7.69508 8.23679 8.47627 8.7699 9.13885 9.69926C9.3448 9.98824 9.69483 10.1383 10.0458 10.0883C10.397 10.0384 10.6911 9.7969 10.8084 9.46216C11.2595 8.17494 12.0211 7.40644 12.8458 7.40644C12.979 7.40644 13.119 7.42502 13.2618 7.46173C13.7801 7.59494 14.1302 7.91134 14.3326 8.42926C14.7489 9.49524 14.455 11.1887 13.6223 12.682C13.5956 12.683 13.5692 12.6851 13.5424 12.6864C13.3229 12.6962 13.1036 12.7147 12.8855 12.7411L13.4414 10.5781C13.5719 10.07 13.266 9.55244 12.7581 9.42194C12.2499 9.29122 11.7324 9.5973 11.6019 10.1053L10.7894 13.2666C10.7828 13.2691 10.7763 13.2718 10.7698 13.2743C10.6089 13.3371 10.4489 13.4037 10.2922 13.4761L8.55545 10.5378C8.28867 10.0863 7.7063 9.93647 7.25476 10.2035C6.80322 10.4702 6.65357 11.0527 6.92035 11.5043L8.66228 14.4514C8.52226 14.5574 8.38564 14.6673 8.25242 14.7816L5.07239 13.9643C4.5641 13.8336 4.04674 14.1397 3.91624 14.6476C3.78574 15.1557 4.0916 15.6733 4.59956 15.8038L6.80333 16.3702C6.68416 16.538 6.5711 16.7103 6.46394 16.8866C6.46167 16.8902 6.45941 16.894 6.45714 16.8976C6.44117 16.9241 6.42418 16.9499 6.40855 16.9764C4.62674 17.0035 2.94407 16.3976 2.24025 15.49ZM56.1006 26.9425V31.9783H13.0074C12.4829 31.9783 12.0578 32.4035 12.0578 32.9279C12.0578 33.4524 12.483 33.8776 13.0074 33.8776H53.281V42.1573C51.7564 42.1448 50.21 42.148 48.7569 42.1669C48.2324 42.1737 47.813 42.6045 47.8199 43.129C47.8267 43.6492 48.2503 44.0663 48.7692 44.0663C48.7734 44.0663 48.7775 44.0663 48.782 44.0663C50.2268 44.0473 51.7649 44.0444 53.2812 44.0568V52.3558H6.03846V44.0648C19.0548 44.0434 31.7539 44.044 44.8256 44.0663C44.8261 44.0663 44.8267 44.0663 44.8273 44.0663C45.3511 44.0663 45.7762 43.6421 45.777 43.1182C45.7779 42.5938 45.3534 42.1679 44.8289 42.1669C31.7562 42.1445 19.0558 42.144 6.03857 42.1654V33.8777H9.46227C9.98676 33.8777 10.4119 33.4524 10.4119 32.928C10.4119 32.4037 9.98665 31.9784 9.46227 31.9784H5.08871H3.219V26.9426L56.1006 26.9425ZM38.9286 21.6064C39.5244 21.3821 39.5717 20.6653 39.9444 20.2189C41.1703 18.7507 43.6006 19.2118 44.207 21.0196C44.2184 21.0533 44.2316 21.0864 44.2464 21.1185C44.3506 21.3424 44.539 21.5185 44.7729 21.6065C45.3116 21.8094 45.8316 21.3532 46.3453 21.2503C47.2645 21.0662 48.2323 21.4339 48.8021 22.1751C48.8112 22.1869 48.8216 22.1973 48.8311 22.2087C49.1874 22.6292 49.1754 23.2654 49.7551 23.4834C50.0221 23.5838 50.3205 23.559 50.5674 23.4153C50.9452 23.1952 51.3769 23.079 51.8153 23.079C53.0071 23.079 54.0056 23.9222 54.2457 25.0432H29.4564C29.4937 24.8693 29.5495 24.7039 29.6229 24.5423C30.2198 23.2272 31.8845 22.6879 33.1337 23.4152C33.3773 23.557 33.6827 23.5826 33.9461 23.4834C34.2134 23.3828 34.4213 23.1674 34.512 22.8966C34.852 21.883 35.799 21.2019 36.8683 21.2019C37.5593 21.2018 38.2543 21.8603 38.9286 21.6064ZM37.9267 19.4324C37.9075 19.4276 37.8879 19.4242 37.8687 19.4197C37.5412 19.343 37.2047 19.3024 36.8683 19.3024C35.3303 19.3024 33.9359 20.1011 33.1481 21.3652C32.7405 21.2427 32.3152 21.1795 31.8862 21.1795C29.7828 21.1795 27.888 22.7955 27.5567 24.8706C27.5476 24.9278 27.539 24.9855 27.532 25.043H22.883C22.6974 25.0423 23.0271 23.1199 23.0551 22.9585C23.8613 18.2923 28.7578 15.3459 33.2911 16.4483C35.1063 16.89 36.7745 17.9683 37.9267 19.4324Z" fill="black"/>
</g>
<defs>
<clipPath id="clip0">
<rect width="58" height="58" fill="white"/>
</clipPath>
</defs>
</svg>
