<svg width="127" height="126" viewBox="0 0 127 126" fill="none" xmlns="http://www.w3.org/2000/svg">
<g clip-path="url(#clip0)">
<path d="M125.959 63C125.959 97.2171 97.9992 124.963 63.5 124.963C29.0008 124.963 1.04099 97.2171 1.04099 63C1.04099 28.7828 29.0008 1.03705 63.5 1.03705C97.9992 1.03705 125.959 28.7828 125.959 63Z" fill="#CB9F76" fill-opacity="0.24" stroke="black" stroke-width="3"/>
<path d="M63.5 110.963C90.2338 110.963 111.906 89.3732 111.906 62.7407C111.906 36.1084 90.2338 14.5185 63.5 14.5185C36.7663 14.5185 15.0943 36.1084 15.0943 62.7407C15.0943 89.3732 36.7663 110.963 63.5 110.963Z" stroke="black" stroke-width="3"/>
<path d="M72.2328 108.816C69.8635 108.211 67.6837 107.516 65.5757 106.844C59.1362 104.79 52.477 102.667 39.3715 102.667C38.8991 102.667 38.5164 103.037 38.5164 103.495C38.5164 103.952 38.8991 104.322 39.3715 104.322C52.2027 104.322 58.7292 106.404 65.0406 108.416C66.2935 108.816 67.5728 109.223 68.9043 109.616C69.8391 109.892 70.7989 110.162 71.7966 110.417C71.8695 110.436 71.9429 110.444 72.0152 110.444C72.3936 110.444 72.7403 110.199 72.8413 109.827C72.8605 109.757 72.8688 109.686 72.8688 109.616C72.8688 109.249 72.6164 108.914 72.2328 108.816Z" fill="black"/>
<path d="M65.036 101.361C70.4017 103.013 75.9496 104.721 83.5145 105.766C83.5717 105.774 83.629 105.778 83.6852 105.778C84.2489 105.778 84.7428 105.391 84.8282 104.855C84.8287 104.852 84.8287 104.85 84.8287 104.847C84.9172 104.259 84.4821 103.714 83.8528 103.627C76.4847 102.609 71.0326 100.93 65.76 99.3072C57.0469 96.6249 48.0368 93.8518 30.3044 93.8518C29.6654 93.8518 29.1475 94.3361 29.1475 94.933C29.1475 95.5303 29.6654 96.0141 30.3044 96.0141C47.666 96.0141 56.4963 98.7327 65.036 101.361Z" fill="black"/>
<path d="M43.4564 87.123C42.837 87.0339 42.2621 87.4585 42.1714 88.0745C42.171 88.0771 42.171 88.0802 42.1707 88.0828C42.0853 88.6952 42.512 89.2624 43.128 89.3527C50.4057 90.4125 55.7738 92.1708 60.9652 93.8715C69.4961 96.6658 78.3174 99.5555 95.6789 99.5555C96.3045 99.5555 96.8115 99.051 96.8115 98.4288C96.8115 97.8066 96.3045 97.3026 95.6789 97.3026C78.6807 97.3026 70.0353 94.4704 61.6741 91.7311C56.3911 90.0008 50.9279 88.2109 43.4564 87.123Z" fill="black"/>
<path d="M35.6217 88.662C35.6611 88.6651 35.7004 88.6667 35.7395 88.6667C36.3563 88.6667 36.8836 88.2622 36.9481 87.7209C36.9485 87.7183 36.9491 87.7162 36.9492 87.7136C37.0135 87.1344 36.5232 86.6201 35.8544 86.5641C31.8883 86.2343 27.7087 86.0741 23.0774 86.0741C22.4052 86.0741 21.8607 86.5459 21.8607 87.1277C21.8607 87.7095 22.4052 88.1813 23.0774 88.1813C27.6303 88.1813 31.7336 88.3384 35.6217 88.662Z" fill="black"/>
<path d="M62.3768 83.6484C72.886 86.1155 83.2318 88.6666 104.619 88.6666C105.39 88.6666 106.014 88.2212 106.014 87.6721C106.014 87.1225 105.39 86.6776 104.619 86.6776C86.4162 86.6776 76.5097 84.7881 67.3287 82.7058C76.5097 80.6224 90.0539 78.7303 108.262 78.7298C109.033 78.7298 109.658 78.2849 109.658 77.7352C109.658 77.1861 109.033 76.7407 108.262 76.7407C87.1709 76.7407 73.1968 79.2239 62.8223 81.6589C52.4442 79.2234 40.0229 76.7407 18.926 76.7407C18.1552 76.7407 17.5306 77.1861 17.5306 77.7352C17.5306 78.2844 18.1552 78.7298 18.926 78.7298C39.8653 78.7298 52.0773 81.2301 62.3768 83.6484Z" fill="black"/>
<path d="M91.6414 63.4718V65.8793C91.6414 68.7426 89.1561 71.0645 86.0893 71.0645H40.9117C37.8447 71.0645 35.3584 68.7426 35.3584 65.8793V63.4718C35.3584 62.3824 36.3052 61.4984 37.4719 61.4984H37.5818H49.8968L54.1213 65.4432L58.3456 61.4984H89.4179H89.5293C90.6957 61.4984 91.6414 62.3824 91.6414 63.4718Z" fill="#F7B239"/>
<path d="M91.6414 51.2579C91.6414 52.3486 90.6957 53.2316 89.5293 53.2316H89.4179H37.5818H37.4719C36.8886 53.2316 36.3602 53.0113 35.978 52.6545C35.5958 52.2973 35.3584 51.804 35.3584 51.2579C35.3584 46.8918 38.4147 43.192 42.639 41.9245L48.3761 47.2826C49.398 48.2357 51.0528 48.2357 52.0747 47.2826C53.0954 46.3282 53.0954 44.7826 52.0747 43.8282L49.5334 41.4548H57.2312L63.4709 47.2826C64.4931 48.2357 66.1477 48.2357 67.1695 47.2826C68.1902 46.3282 68.1902 44.7826 67.1695 43.8282L64.6284 41.4548H72.326L78.5662 47.2826C79.5863 48.2357 81.2425 48.2357 82.2648 47.2826C83.2849 46.3282 83.2849 44.7826 82.2648 43.8282L79.7232 41.4548H81.1447C84.0428 41.4548 86.6671 42.552 88.5674 44.3254C90.4667 46.1002 91.6414 48.5501 91.6414 51.2579Z" fill="#F7B239"/>
<path d="M49.8525 71.0645H40.9117C37.8447 71.0645 35.3584 68.7426 35.3584 65.8793V63.4718C35.3584 62.3824 36.3052 61.4984 37.4719 61.4984H46.4127C45.246 61.4984 44.2992 62.3824 44.2992 63.4718V65.8793C44.2992 68.7426 46.7856 71.0645 49.8525 71.0645Z" fill="#E09B2D"/>
<path d="M44.9188 52.6545C45.301 53.0113 45.8293 53.2316 46.4127 53.2316H37.4719C36.8886 53.2316 36.3602 53.0113 35.978 52.6545C35.5958 52.2973 35.3584 51.804 35.3584 51.2579C35.3584 46.8918 38.4147 43.192 42.639 41.9245L46.3712 45.4101C45.069 47.0434 44.2992 49.0661 44.2992 51.2579C44.2992 51.804 44.5366 52.2973 44.9188 52.6545Z" fill="#E09B2D"/>
<path d="M55.906 47.5506C54.8853 48.2257 53.4628 48.1355 52.5494 47.2826L46.3108 41.4561C49.1606 41.4862 51.7367 42.5771 53.6101 44.3255C54.5892 45.2398 55.3751 46.3345 55.906 47.5506Z" fill="#F7B239"/>
<path d="M46.3101 41.4561C46.2688 41.4548 46.2288 41.4548 46.1874 41.4548H46.3088L46.3101 41.4561Z" fill="#F7B239"/>
<path d="M89.4179 57.3653V61.4984H58.3456L62.7697 57.3653H89.4179Z" fill="#9AD14B"/>
<path d="M89.4179 53.2316V57.3647H62.7697H45.4713H37.5818V53.2316H89.4179Z" fill="#F95428"/>
<path d="M44.1793 53.2316V57.3647H40.7877H38.5859H37.5818V53.2316H44.1793Z" fill="#E54728"/>
<path d="M82.2648 43.8282C83.2849 44.7826 83.2849 46.3282 82.2648 47.2826C81.2425 48.2357 79.5863 48.2357 78.5662 47.2826L72.326 41.4548H79.7232L82.2648 43.8282Z" fill="#B27214"/>
<path d="M67.1695 43.8282C68.1902 44.7826 68.1902 46.3282 67.1695 47.2826C66.1477 48.2357 64.4931 48.2357 63.4709 47.2826L57.2312 41.4548H64.6284L67.1695 43.8282Z" fill="#B27214"/>
<path d="M62.7698 57.3653L58.3456 61.4984L54.1213 65.4433L49.8968 61.4984L45.4713 57.3653H62.7698Z" fill="#F4DE3B"/>
<path d="M52.0747 43.8282C53.0954 44.7826 53.0954 46.3282 52.0747 47.2826C51.0528 48.2357 49.3979 48.2357 48.376 47.2826L42.639 41.9245C43.6528 41.6189 44.7337 41.4548 45.8562 41.4548H49.5334L52.0747 43.8282Z" fill="#B27214"/>
<path d="M49.8968 61.4984H37.5818V57.3653H45.4713L49.8968 61.4984Z" fill="#9AD14B"/>
<path d="M44.1793 57.1563V61.2894H40.7877H38.5859H37.5818V57.1563H44.1793Z" fill="#90BC42"/>
<path d="M88.367 50.6333C87.9085 50.6333 87.4947 50.339 87.3875 49.9041C87.1204 48.8192 86.5286 47.8244 85.6756 47.0272C85.5897 46.947 85.5007 46.8683 85.4111 46.7938C84.9968 46.4481 84.9614 45.8543 85.3315 45.4674C85.7016 45.0806 86.3376 45.0473 86.7519 45.393C86.8685 45.4906 86.9851 45.5934 87.0981 45.6986C88.2187 46.7461 88.9963 48.0546 89.3481 49.4834C89.4725 49.9891 89.1342 50.4932 88.5929 50.6093C88.5174 50.6256 88.4415 50.6333 88.367 50.6333ZM76.0449 49.9413C75.7873 49.9413 75.5301 49.8496 75.3339 49.6662L72.8975 47.391C72.505 47.0242 72.505 46.4294 72.8975 46.0627C73.2905 45.6958 73.9275 45.6957 74.32 46.0627L76.7559 48.3378C77.1489 48.7047 77.1489 49.2994 76.7559 49.6662C76.5597 49.8496 76.302 49.9413 76.0449 49.9413ZM60.4957 49.5175C60.2386 49.5175 59.981 49.4258 59.7847 49.2424L57.3035 46.9249C56.9106 46.558 56.9106 45.9632 57.3035 45.5965C57.696 45.2296 58.3331 45.2296 58.7255 45.5965L61.2072 47.914C61.5997 48.2808 61.5997 48.8756 61.2072 49.2424C61.011 49.4257 60.7534 49.5175 60.4957 49.5175Z" fill="white"/>
<path d="M55.9534 45.2749C56.5088 45.2749 56.959 44.8543 56.959 44.3355C56.959 43.8167 56.5088 43.3961 55.9534 43.3961C55.398 43.3961 54.9478 43.8167 54.9478 44.3355C54.9478 44.8543 55.398 45.2749 55.9534 45.2749Z" fill="white"/>
<path d="M71.6884 45.8594C72.2438 45.8594 72.6945 45.4388 72.6945 44.92C72.6945 44.4013 72.2438 43.9807 71.6884 43.9807C71.133 43.9807 70.6828 44.4013 70.6828 44.92C70.6828 45.4388 71.133 45.8594 71.6884 45.8594Z" fill="white"/>
<path d="M88.8911 67.6698C88.3358 67.6698 87.8856 67.2492 87.8856 66.7302V64.2253C87.8856 63.7067 88.3358 63.2857 88.8911 63.2857C89.4465 63.2857 89.8967 63.7067 89.8967 64.2253V66.7302C89.8967 67.2492 89.4465 67.6698 88.8911 67.6698Z" fill="white"/>
<path d="M90.4235 60.6812L90.424 54.0483C91.7086 53.6879 92.6475 52.5742 92.6475 51.2583C92.6475 45.3345 87.4874 40.5151 81.1442 40.5151H45.8562C39.5134 40.5151 34.3531 45.3345 34.3531 51.2583C34.3531 52.5736 35.292 53.6879 36.5766 54.0483L36.5761 60.6812C35.2913 61.0416 34.3525 62.1559 34.3525 63.4713V65.8788C34.3525 69.2559 37.2949 72.0036 40.9116 72.0036H86.0893C89.7052 72.0036 92.647 69.2559 92.647 65.8788V63.4713C92.647 62.1559 91.7081 61.041 90.4235 60.6812ZM88.4123 56.4252H38.5881V54.1712H88.4123V56.4252ZM38.5875 58.3043H45.055L47.4684 60.5583H38.5875V58.3043ZM47.8998 58.3043H60.3411L54.1207 64.1148L47.8998 58.3043ZM63.1861 58.3043H88.4118V60.5583H60.7731L63.1861 58.3043ZM81.5538 46.6175C80.9255 47.2034 79.9043 47.2037 79.2771 46.6179L74.7541 42.3937H79.3068L81.5527 44.4916C82.1799 45.078 82.1799 46.032 81.5538 46.6175ZM66.458 44.4916C67.0846 45.078 67.0846 46.032 66.4585 46.6175C65.8308 47.2032 64.8096 47.203 64.1818 46.6179L59.6593 42.3937H64.2115L66.458 44.4916ZM49.1167 42.3938L51.3628 44.4917C51.9898 45.0781 51.9898 46.0321 51.3637 46.6177C50.7359 47.2032 49.7144 47.2032 49.0871 46.618L44.6441 42.4686C45.0413 42.4211 45.4453 42.3938 45.8561 42.3938H49.1167ZM42.3813 43.0118L47.6653 47.9468C48.3709 48.6051 49.2979 48.9342 50.225 48.9342C51.1523 48.9342 52.0799 48.6048 52.7862 47.9459C54.1962 46.6275 54.1962 44.4824 52.7857 43.1636L51.9616 42.3938H56.8143L62.7604 47.9468C63.4662 48.6051 64.3926 48.9342 65.3196 48.9342C66.2472 48.9342 67.1747 48.6048 67.881 47.9459C69.291 46.6275 69.291 44.4824 67.881 43.1636L67.0565 42.3938H71.9096L77.8546 47.9464C78.5604 48.6053 79.4869 48.9347 80.4144 48.9347C81.3419 48.9347 82.2695 48.6052 82.9763 47.946C84.3858 46.6277 84.3858 44.4826 82.9758 43.1637L82.2132 42.4515C86.9456 42.9493 90.6358 46.708 90.6358 51.2583C90.6358 51.8287 90.1393 52.2926 89.5288 52.2926H89.4184H37.5823H37.4722C36.8614 52.2926 36.3646 51.8287 36.3646 51.2583C36.3646 47.5158 38.8621 44.3099 42.3813 43.0118ZM90.6353 65.8788C90.6353 68.2199 88.596 70.125 86.0893 70.125H40.9116C38.4041 70.125 36.3641 68.2199 36.3641 65.8788V63.4713C36.3641 62.901 36.861 62.4369 37.4718 62.4369H37.5817H49.48L53.4097 66.1075C53.5982 66.2833 53.8542 66.3823 54.1207 66.3823C54.3878 66.3823 54.6438 66.2833 54.8323 66.1075L58.7614 62.4369H89.4174H89.5288C90.1388 62.4369 90.6353 62.901 90.6353 63.4713V65.8788Z" fill="#333333"/>
<path d="M55.9388 29.381L59.8498 24.4074L63.7608 29.381L67.6712 24.4074L71.5822 29.381L75.4926 24.4074V36.3438H52.0279V24.4074L55.9388 29.381Z" fill="#F8C660"/>
<path d="M52.0279 36.3439H75.4926V38.3333H52.0279V36.3439Z" fill="#ECF0F1"/>
<path d="M67.6712 34.1719C66.6786 34.1719 65.874 33.3703 65.874 32.3815C65.874 31.3926 66.6786 30.591 67.6712 30.591C68.6638 30.591 69.4685 31.3926 69.4685 32.3815C69.4685 33.3703 68.6638 34.1719 67.6712 34.1719Z" fill="#DF5F4E"/>
<path d="M59.8503 34.1719C58.8577 34.1719 58.0531 33.3703 58.0531 32.3815C58.0531 31.3926 58.8577 30.591 59.8503 30.591C60.8429 30.591 61.6476 31.3926 61.6476 32.3815C61.6476 33.3703 60.8429 34.1719 59.8503 34.1719Z" fill="#DF5F4E"/>
<path d="M52.0279 34.1722C53.0267 34.1722 53.8251 33.3706 53.8251 32.3817C53.8251 31.3929 53.0267 30.5912 52.0279 30.5912V34.1722Z" fill="#DF5F4E"/>
<path d="M75.4927 30.5915C74.4938 30.5915 73.6954 31.3931 73.6954 32.3819C73.6954 33.3708 74.4938 34.1724 75.4927 34.1724V30.5915Z" fill="#DF5F4E"/>
<path d="M51.8651 23.9373C52.0664 23.8682 52.2896 23.9338 52.4208 24.1008L55.9388 28.5746L59.4568 24.1009C59.5516 23.9805 59.6962 23.9102 59.8498 23.9102C60.0028 23.9102 60.148 23.9805 60.2428 24.1009L63.7608 28.5746L67.2783 24.1009C67.373 23.9805 67.5177 23.9102 67.6712 23.9102C67.8248 23.9102 67.9695 23.9806 68.0642 24.1009L71.5817 28.5746L75.0997 24.1009C75.2308 23.9338 75.4541 23.8682 75.655 23.9374C75.8565 24.0065 75.9918 24.1953 75.9918 24.4075V38.3334C75.9918 38.6081 75.768 38.8307 75.4927 38.8307H52.0279C51.7522 38.8307 51.5287 38.6081 51.5287 38.3334V24.4075C51.5287 24.1953 51.6638 24.0065 51.8651 23.9373ZM52.527 33.5753C52.996 33.3801 53.3259 32.9186 53.3259 32.3816C53.3259 31.8448 52.996 31.3833 52.527 31.188V33.5753ZM71.9752 29.6877C71.641 30.0203 71.2163 29.7213 71.1929 29.6922C71.1918 29.6905 71.1903 29.6894 71.1887 29.6877L67.6712 25.214L64.1537 29.6877C64.0554 29.8129 63.9086 29.8784 63.7602 29.8784C63.5187 29.8784 63.3683 29.6885 63.3678 29.6877L59.8498 25.214C59.8498 25.214 56.2756 29.7535 56.2589 29.7622C56.2548 29.7656 56.2511 29.7692 56.2469 29.7725C56.0299 29.9419 55.716 29.904 55.5458 29.6877L52.527 25.8487V30.1489C53.5544 30.3767 54.3242 31.291 54.3242 32.3816C54.3242 33.4724 53.5539 34.3867 52.527 34.6144V35.8465H74.9935V34.6144C73.9666 34.3866 73.1962 33.4724 73.1962 32.3816C73.1962 31.291 73.9666 30.3767 74.9935 30.1489V25.8489L71.9752 29.6877ZM74.9935 31.188C74.5245 31.3833 74.1945 31.8448 74.1945 32.3817C74.1945 32.9186 74.5245 33.3801 74.9935 33.5754V31.188ZM52.527 37.8359H74.9935V36.8413H52.527V37.8359Z" fill="#231F20"/>
<path d="M67.6712 34.6695C66.4049 34.6695 65.3748 33.6431 65.3748 32.3817C65.3748 31.1202 66.4049 30.0939 67.6712 30.0939C68.9376 30.0939 69.9676 31.1202 69.9676 32.3817C69.9682 33.6431 68.9376 34.6695 67.6712 34.6695ZM67.6712 31.0885C66.9556 31.0885 66.3731 31.6687 66.3731 32.3816C66.3731 33.0946 66.9556 33.6748 67.6712 33.6748C68.3869 33.6748 68.9693 33.0946 68.9693 32.3816C68.9693 31.6687 68.3869 31.0885 67.6712 31.0885Z" fill="#231F20"/>
<path d="M59.8498 34.6695C58.5834 34.6695 57.5534 33.6431 57.5534 32.3817C57.5534 31.1202 58.5834 30.0939 59.8498 30.0939C61.1161 30.0939 62.1462 31.1202 62.1462 32.3817C62.1462 33.6431 61.1161 34.6695 59.8498 34.6695ZM59.8498 31.0885C59.1341 31.0885 58.5517 31.6687 58.5517 32.3816C58.5517 33.0946 59.1341 33.6748 59.8498 33.6748C60.5655 33.6748 61.1479 33.0946 61.1479 32.3816C61.1479 31.6687 60.5655 31.0885 59.8498 31.0885Z" fill="#231F20"/>
<path d="M17.2588 39.3962C17.7705 38.4196 17.5841 37.1017 16.544 36.5607C13.9756 35.225 13.7731 39.6237 11.5643 38.475C10.7082 38.0298 10.6 36.937 11.0134 36.1481C11.2905 35.6193 11.7399 35.2399 12.3401 35.1341C12.4073 35.1202 12.4806 35.1258 12.5478 35.1119C12.6258 35.0982 12.6737 35.0797 12.7117 35.0072C12.7608 34.9134 12.713 34.8071 12.6231 34.7604C12.5974 34.747 12.5652 34.7357 12.5328 34.7351C11.7464 34.7494 11.0283 35.2985 10.6752 35.9722C10.1657 36.9445 10.3434 38.2687 11.3878 38.8119C13.9348 40.1365 14.1866 35.758 16.3697 36.8934C17.2344 37.3431 17.3428 38.4251 16.9249 39.2225C16.6612 39.7257 16.2248 40.2259 15.6583 40.3817C15.5368 40.4161 15.4135 40.4226 15.2879 40.4441C15.2207 40.458 15.1663 40.4786 15.1328 40.5425C15.0836 40.6363 15.1184 40.7467 15.2126 40.7956C15.2425 40.8112 15.277 40.8183 15.3094 40.8189C16.1822 40.8061 16.8766 40.1253 17.2588 39.3962Z" fill="black"/>
<path d="M12.3401 35.1341L12.4308 35.6447L12.4383 35.6434L12.4458 35.6418L12.3401 35.1341ZM12.5478 35.112L12.4574 34.6013L12.4498 34.6027L12.442 34.6042L12.5478 35.112ZM12.5328 34.7351L12.5419 34.2167L12.5327 34.2165L12.5233 34.2167L12.5328 34.7351ZM15.6583 40.3817L15.5198 39.8819L15.5159 39.883L15.6583 40.3817ZM15.2879 40.4441L15.1999 39.933L15.191 39.9346L15.1821 39.9364L15.2879 40.4441ZM15.3094 40.8189L15.3003 41.3373L15.3087 41.3374L15.317 41.3373L15.3094 40.8189ZM17.7202 39.6361C18.3216 38.4884 18.1556 36.814 16.7849 36.1011L16.3031 37.0204C17.0127 37.3894 17.2194 38.3508 16.7974 39.1562L17.7202 39.6361ZM16.7849 36.1011C16.0158 35.7011 15.3444 35.7031 14.7602 35.9942C14.2307 36.2579 13.8301 36.7373 13.5164 37.1195C13.1675 37.5446 12.9164 37.8593 12.6374 38.0329C12.5138 38.1098 12.4023 38.1456 12.289 38.1496C12.1744 38.1536 12.0185 38.1263 11.8052 38.0153L11.3235 38.9347C11.6624 39.1109 11.996 39.1975 12.3254 39.186C12.6559 39.1745 12.9426 39.0656 13.1887 38.9125C13.6492 38.6261 14.0234 38.1401 14.3223 37.776C14.6563 37.3691 14.926 37.071 15.2258 36.9216C15.4709 36.7995 15.7879 36.7525 16.3031 37.0204L16.7849 36.1011ZM11.8052 38.0153C11.2977 37.7514 11.1396 37.0278 11.4748 36.3881L10.552 35.9081C10.0605 36.8462 10.1188 38.3082 11.3235 38.9347L11.8052 38.0153ZM11.4748 36.3881C11.69 35.9774 12.0152 35.7179 12.4308 35.6447L12.2495 34.6236C11.4648 34.7618 10.891 35.2613 10.552 35.9081L11.4748 36.3881ZM12.4458 35.6418C12.4359 35.6439 12.4325 35.6431 12.4748 35.6406C12.5028 35.639 12.5764 35.6356 12.6536 35.6196L12.442 34.6042C12.452 34.6022 12.4554 34.6029 12.4131 34.6054C12.3851 34.6071 12.3115 34.6105 12.2343 34.6264L12.4458 35.6418ZM12.6382 35.6226C12.6891 35.6136 12.7972 35.5934 12.9074 35.5293C13.0335 35.4558 13.1176 35.353 13.173 35.2472L12.2502 34.7672C12.2573 34.7539 12.2713 34.7304 12.2953 34.7041C12.3203 34.6766 12.35 34.6526 12.3821 34.634C12.4393 34.6006 12.4845 34.5965 12.4574 34.6013L12.6382 35.6226ZM13.173 35.2472C13.3829 34.8467 13.1522 34.4506 12.864 34.3007L12.3822 35.22C12.3196 35.1874 12.2641 35.1309 12.2337 35.0523C12.2011 34.9676 12.2007 34.8617 12.2502 34.7672L13.173 35.2472ZM12.864 34.3007C12.7955 34.2651 12.6823 34.2191 12.5419 34.2167L12.5237 35.2536C12.4831 35.2529 12.4515 35.2457 12.4311 35.2397C12.4103 35.2334 12.3942 35.2262 12.3822 35.22L12.864 34.3007ZM12.5233 34.2167C11.5048 34.2352 10.634 34.9307 10.2139 35.7323L11.1367 36.2122C11.4228 35.6663 11.988 35.2636 12.5423 35.2536L12.5233 34.2167ZM10.2139 35.7323C9.61614 36.8728 9.76953 38.5552 11.147 39.2716L11.6287 38.3522C10.9172 37.9822 10.7153 37.0162 11.1367 36.2122L10.2139 35.7323ZM11.147 39.2716C11.9123 39.6696 12.5824 39.6651 13.1659 39.3754C13.6953 39.1125 14.0989 38.6359 14.4161 38.2543C14.7682 37.8306 15.0227 37.5151 15.3039 37.3404C15.4288 37.2628 15.5408 37.2266 15.6533 37.2223C15.7666 37.218 15.9198 37.2443 16.1288 37.353L16.6106 36.4337C16.2738 36.2586 15.9416 36.1734 15.6132 36.186C15.2842 36.1987 14.9984 36.308 14.753 36.4605C14.2933 36.7461 13.9164 37.2294 13.6143 37.5929C13.2773 37.9984 13.0039 38.2971 12.7016 38.4472C12.4533 38.5705 12.1368 38.6165 11.6287 38.3522L11.147 39.2716ZM16.1288 37.353C16.6462 37.6222 16.8024 38.3359 16.4635 38.9825L17.3863 39.4625C17.8832 38.5143 17.8225 37.064 16.6106 36.4337L16.1288 37.353ZM16.4635 38.9825C16.2298 39.4284 15.8856 39.7813 15.5198 39.8819L15.7968 40.8815C16.5639 40.6705 17.0925 40.023 17.3863 39.4625L16.4635 38.9825ZM15.5159 39.883C15.4899 39.8904 15.4567 39.8967 15.4024 39.9043C15.3597 39.9102 15.2725 39.9206 15.1999 39.933L15.3759 40.9551C15.4289 40.9461 15.4662 40.9425 15.5468 40.9313C15.616 40.9216 15.7052 40.9075 15.8008 40.8804L15.5159 39.883ZM15.1821 39.9364C15.0718 39.9592 14.8166 40.0255 14.6714 40.3026L15.5942 40.7825C15.5807 40.8082 15.5615 40.8363 15.5351 40.8634C15.5088 40.8903 15.481 40.9105 15.4556 40.925C15.4099 40.9509 15.3762 40.9554 15.3937 40.9518L15.1821 39.9364ZM14.6714 40.3026C14.4892 40.6502 14.6228 41.0738 14.9717 41.2553L15.4535 40.336C15.6141 40.4196 15.6781 40.6225 15.5942 40.7825L14.6714 40.3026ZM14.9717 41.2553C15.0865 41.315 15.2034 41.3356 15.3003 41.3373L15.3185 40.3004C15.3506 40.301 15.3986 40.3075 15.4535 40.336L14.9717 41.2553ZM15.317 41.3373C16.469 41.3205 17.2996 40.4386 17.7202 39.6361L16.7974 39.1562C16.4536 39.8121 15.8954 40.2917 15.3017 40.3004L15.317 41.3373Z" fill="black"/>
<path d="M24.1967 29.0632C24.2593 28.9837 24.2445 28.8622 24.1647 28.7998C24.0774 28.7316 18.5581 27.2065 17.9954 27.048L17.1447 26.8112C17.0381 26.7829 16.9231 26.742 16.8173 26.7204C16.7365 26.7062 16.6725 26.7173 16.6188 26.7854C16.5741 26.8422 16.5674 26.9287 16.6027 26.9929L20.3317 33.5508C20.3401 33.5635 20.3638 33.5881 20.379 33.5999C20.4588 33.6623 20.5846 33.6506 20.6472 33.5711C20.6919 33.5143 20.6986 33.4278 20.6633 33.3636L19.6193 31.5329L21.9618 28.5579L23.9982 29.1282C24.0625 29.1479 24.155 29.1162 24.1967 29.0632ZM19.4175 31.1734L17.1575 27.2003L21.5663 28.4445L19.4175 31.1734Z" fill="black"/>
<path d="M17.9954 27.048L18.137 26.5491L18.1355 26.5487L17.9954 27.048ZM17.1447 26.8112L17.2848 26.3118L17.2787 26.3101L17.1447 26.8112ZM16.8173 26.7204L16.9215 26.2124L16.9148 26.2111L16.908 26.2099L16.8173 26.7204ZM16.6027 26.9929L16.1461 27.2419L16.1479 27.2452L16.1499 27.2485L16.6027 26.9929ZM20.3317 33.5508L19.8788 33.8064L19.8876 33.8219L19.8975 33.8366L20.3317 33.5508ZM20.6633 33.3636L21.1198 33.1147L21.1179 33.111L21.1158 33.1075L20.6633 33.3636ZM19.6193 31.5329L19.2097 31.2128L18.9942 31.4865L19.1667 31.789L19.6193 31.5329ZM21.9618 28.5579L22.1026 28.0587L21.7672 27.9648L21.5522 28.2378L21.9618 28.5579ZM23.9982 29.1282L24.151 28.6326L24.1451 28.6308L24.1391 28.6291L23.9982 29.1282ZM19.4175 31.1734L18.9646 31.429L19.3476 32.1023L19.827 31.4934L19.4175 31.1734ZM17.1575 27.2003L17.2994 26.7014L16.0797 26.3572L16.7047 27.4559L17.1575 27.2003ZM21.5663 28.4445L21.9758 28.7645L22.4547 28.1563L21.7081 27.9456L21.5663 28.4445ZM24.6062 29.3832C24.8462 29.0785 24.792 28.6309 24.486 28.3918L23.8435 29.2078C23.7649 29.1464 23.7265 29.0627 23.7174 28.9873C23.7082 28.9118 23.7255 28.8215 23.7872 28.7432L24.6062 29.3832ZM24.486 28.3918C24.4279 28.3465 24.3698 28.3225 24.3687 28.322C24.3515 28.3144 24.3356 28.3082 24.3246 28.3041C24.3018 28.2955 24.2759 28.2867 24.2508 28.2784C24.1993 28.2614 24.1304 28.24 24.049 28.2153C23.8851 28.1657 23.6574 28.0991 23.3876 28.0215C22.8472 27.8659 22.1301 27.6635 21.3993 27.4586C19.9327 27.0474 18.4204 26.6288 18.137 26.5491L17.8539 27.547C18.1332 27.6256 19.6617 28.0488 21.1173 28.4569C21.8476 28.6616 22.5618 28.8632 23.0985 29.0177C23.3672 29.0951 23.5894 29.1601 23.7463 29.2076C23.8253 29.2315 23.8845 29.25 23.9237 29.2629C23.9439 29.2695 23.9541 29.2732 23.9572 29.2744C23.9593 29.2752 23.9539 29.2732 23.9447 29.2691C23.9401 29.2671 23.9301 29.2626 23.9174 29.2558C23.9088 29.2513 23.8785 29.2352 23.8435 29.2078L24.486 28.3918ZM18.1355 26.5487L17.2848 26.3118L17.0047 27.3106L17.8554 27.5474L18.1355 26.5487ZM17.2787 26.3101C17.2355 26.2987 17.1945 26.2858 17.1298 26.2665C17.0726 26.2495 16.9986 26.2281 16.9215 26.2124L16.7131 27.2284C16.7418 27.2343 16.7782 27.2442 16.8316 27.2601C16.8775 27.2738 16.9474 27.2954 17.0108 27.3123L17.2787 26.3101ZM16.908 26.2099C16.8264 26.1954 16.7015 26.1838 16.5624 26.2242C16.4117 26.2679 16.2941 26.3576 16.2093 26.4654L17.0284 27.1054C16.9971 27.1451 16.9384 27.1952 16.8534 27.2199C16.7798 27.2412 16.7274 27.2311 16.7266 27.231L16.908 26.2099ZM16.2093 26.4654C16.0335 26.6887 16.0129 26.9993 16.1461 27.2419L17.0593 26.744C17.0947 26.8084 17.1039 26.8727 17.0997 26.9264C17.0956 26.9798 17.0764 27.0444 17.0284 27.1054L16.2093 26.4654ZM16.1499 27.2485L19.8788 33.8064L20.7846 33.2953L17.0556 26.7374L16.1499 27.2485ZM19.8975 33.8366C19.9283 33.8831 19.9627 33.9196 19.9769 33.9343C19.9946 33.9528 20.0233 33.9811 20.0577 34.0079L20.7002 33.192C20.7119 33.2011 20.7193 33.2079 20.7217 33.2102C20.7248 33.2131 20.727 33.2153 20.7287 33.2171C20.7303 33.2187 20.7333 33.2219 20.7376 33.227C20.7398 33.2296 20.7433 33.2337 20.7474 33.239C20.7513 33.2441 20.758 33.253 20.766 33.265L19.8975 33.8366ZM20.0577 34.0079C20.3502 34.2365 20.8063 34.2091 21.0567 33.8911L20.2377 33.2511C20.3049 33.1657 20.3944 33.1303 20.466 33.123C20.5369 33.1156 20.6233 33.1319 20.7002 33.192L20.0577 34.0079ZM21.0567 33.8911C21.2325 33.6679 21.2531 33.3572 21.1198 33.1147L20.2067 33.6125C20.1713 33.5481 20.1621 33.4838 20.1663 33.4302C20.1704 33.3767 20.1896 33.3121 20.2377 33.2511L21.0567 33.8911ZM21.1158 33.1075L20.0718 31.2767L19.1667 31.789L20.2107 33.6197L21.1158 33.1075ZM20.0288 31.8529L22.3713 28.8779L21.5522 28.2378L19.2097 31.2128L20.0288 31.8529ZM21.8209 29.057L23.8573 29.6274L24.1391 28.6291L22.1026 28.0587L21.8209 29.057ZM23.8454 29.6239C24.0099 29.6742 24.1642 29.6502 24.2706 29.6149C24.3782 29.5791 24.5076 29.5085 24.6062 29.3832L23.7872 28.7432C23.844 28.671 23.9063 28.6427 23.9412 28.6311C23.9749 28.6199 24.0508 28.6019 24.151 28.6326L23.8454 29.6239ZM19.8703 30.9177L17.6104 26.9447L16.7047 27.4559L18.9646 31.429L19.8703 30.9177ZM17.0157 27.6992L21.4244 28.9433L21.7081 27.9456L17.2994 26.7014L17.0157 27.6992ZM21.1567 28.1244L19.0079 30.8533L19.827 31.4934L21.9758 28.7645L21.1567 28.1244Z" fill="black"/>
<path d="M32.6348 21.3086C32.7162 21.2406 32.7264 21.1255 32.6582 21.0443L28.1646 15.7013C28.0965 15.6202 27.9808 15.61 27.8993 15.678C27.8476 15.7213 27.8286 15.781 27.833 15.8463L28.1346 21.3808L22.7141 20.1189C22.6503 20.1031 22.5879 20.1112 22.536 20.1545C22.4583 20.2194 22.4475 20.3414 22.5127 20.4188L27.0061 25.7618C27.0744 25.8429 27.19 25.8531 27.2715 25.7851C27.3529 25.7171 27.3631 25.6019 27.2948 25.5208L23.1642 20.6092L28.289 21.8042C28.346 21.8194 28.409 21.8045 28.4534 21.7674C28.5053 21.7241 28.5267 21.6748 28.5223 21.6096L28.2388 16.3737L32.3695 21.2853C32.4346 21.3627 32.557 21.3735 32.6348 21.3086Z" fill="black"/>
<path d="M27.833 15.8463L28.3527 15.8182L28.3526 15.8145L28.3523 15.8108L27.833 15.8463ZM28.1346 21.3808L28.0161 21.8857L28.692 22.043L28.6543 21.3527L28.1346 21.3808ZM22.7141 20.1189L22.588 20.622L22.5918 20.6229L22.5956 20.6239L22.7141 20.1189ZM23.1642 20.6092L23.2828 20.1044L21.7624 19.7498L22.7652 20.9422L23.1642 20.6092ZM28.289 21.8042L28.4242 21.3034L28.416 21.3012L28.4077 21.2993L28.289 21.8042ZM28.5223 21.6096L28.0025 21.6375L28.0027 21.6413L28.003 21.6451L28.5223 21.6096ZM28.2388 16.3737L28.6378 16.0407L27.6349 14.8484L27.719 16.4017L28.2388 16.3737ZM32.969 21.7061C33.2708 21.4542 33.31 21.012 33.0572 20.7113L32.2592 21.3773C32.1428 21.2389 32.1616 21.0271 32.3005 20.9112L32.969 21.7061ZM33.0572 20.7113L28.5637 15.3684L27.7657 16.0343L32.2592 21.3773L33.0572 20.7113ZM28.5637 15.3684C28.3108 15.0677 27.8669 15.0287 27.5651 15.2806L28.2337 16.0755C28.0947 16.1914 27.8821 16.1727 27.7657 16.0343L28.5637 15.3684ZM27.5651 15.2806C27.3596 15.4521 27.3004 15.688 27.3138 15.8819L28.3523 15.8108C28.3542 15.8381 28.3524 15.8826 28.3328 15.935C28.3122 15.9902 28.2772 16.0391 28.2337 16.0755L27.5651 15.2806ZM27.3133 15.8744L27.6149 21.4089L28.6543 21.3527L28.3527 15.8182L27.3133 15.8744ZM28.2531 20.8759L22.8325 19.614L22.5956 20.6239L28.0161 21.8857L28.2531 20.8759ZM22.8401 19.6159C22.6509 19.5688 22.4073 19.5855 22.2018 19.757L22.8703 20.5519C22.8267 20.5883 22.7722 20.6141 22.7141 20.6246C22.6589 20.6347 22.6147 20.6286 22.588 20.622L22.8401 19.6159ZM22.2018 19.757C21.9037 20.0058 21.8639 20.4548 22.1137 20.7518L22.9116 20.0858C22.9758 20.1621 22.996 20.2518 22.9893 20.3275C22.9826 20.4032 22.9469 20.4881 22.8703 20.5519L22.2018 19.757ZM22.1137 20.7518L26.6072 26.0947L27.4051 25.4288L22.9116 20.0858L22.1137 20.7518ZM26.6072 26.0947C26.86 26.3954 27.304 26.4344 27.6057 26.1825L26.9372 25.3876C27.0761 25.2717 27.2888 25.2904 27.4051 25.4288L26.6072 26.0947ZM27.6057 26.1825C27.9075 25.9307 27.9467 25.4884 27.6939 25.1878L26.8959 25.8538C26.7795 25.7154 26.7982 25.5036 26.9372 25.3876L27.6057 26.1825ZM27.6939 25.1878L23.5632 20.2762L22.7652 20.9422L26.8959 25.8538L27.6939 25.1878ZM23.0456 21.1141L28.1704 22.309L28.4077 21.2993L23.2828 20.1044L23.0456 21.1141ZM28.1539 22.3049C28.3802 22.3655 28.6174 22.307 28.7877 22.1648L28.1192 21.37C28.2006 21.3019 28.3118 21.2733 28.4242 21.3034L28.1539 22.3049ZM28.7877 22.1648C28.8621 22.1028 28.9365 22.0176 28.9863 21.9033C29.0366 21.7882 29.0484 21.6741 29.0415 21.574L28.003 21.6451C28.0006 21.6103 28.004 21.5535 28.0316 21.4901C28.0588 21.4277 28.0966 21.3887 28.1192 21.37L28.7877 22.1648ZM29.042 21.5816L28.7585 16.3458L27.719 16.4017L28.0025 21.6375L29.042 21.5816ZM27.8398 16.7068L31.9705 21.6183L32.7684 20.9523L28.6378 16.0407L27.8398 16.7068ZM31.9705 21.6183C32.2202 21.9152 32.671 21.9548 32.969 21.7061L32.3005 20.9112C32.3771 20.8472 32.4671 20.8271 32.5431 20.8338C32.6192 20.8405 32.7043 20.876 32.7684 20.9523L31.9705 21.6183Z" fill="black"/>
<path d="M42.6481 15.6088C42.7426 15.5605 42.7781 15.4503 42.7295 15.3562L39.532 9.15625C39.4835 9.06214 39.3729 9.02677 39.2784 9.0751C39.2183 9.1059 39.1865 9.16003 39.1764 9.22469L38.2431 14.6888L33.2364 12.265C33.1777 12.2355 33.115 12.2297 33.0549 12.2605C32.9647 12.3067 32.9271 12.4233 32.9735 12.5131L36.171 18.7131C36.2195 18.8072 36.33 18.8426 36.4245 18.7942C36.519 18.7458 36.5545 18.6358 36.506 18.5416L33.5667 12.8422L38.2999 15.1356C38.352 15.163 38.4168 15.1624 38.4683 15.136C38.5285 15.1052 38.5604 15.0618 38.5705 14.9972L39.4552 9.82835L42.3945 15.5277C42.4408 15.6175 42.5579 15.655 42.6481 15.6088Z" fill="black"/>
<path d="M39.1764 9.22471L39.6895 9.31167L39.6902 9.30799L39.6907 9.30431L39.1764 9.22471ZM38.2431 14.6888L38.0156 15.1552L38.6398 15.4573L38.7562 14.7758L38.2431 14.6888ZM33.2364 12.265L33.0018 12.7279L33.0053 12.7296L33.0089 12.7313L33.2364 12.265ZM33.5667 12.8423L33.7943 12.376L32.3901 11.6956L33.1037 13.0792L33.5667 12.8423ZM38.2999 15.1357L38.5427 14.677L38.5352 14.6731L38.5275 14.6694L38.2999 15.1357ZM38.5705 14.9972L38.0574 14.91L38.0568 14.9137L38.0561 14.9175L38.5705 14.9972ZM39.4552 9.82837L39.9181 9.59141L39.2046 8.20779L38.9421 9.74121L39.4552 9.82837ZM42.8859 16.07C43.2361 15.8908 43.3724 15.4681 43.1925 15.1193L42.2666 15.5932C42.1837 15.4326 42.2491 15.2301 42.4103 15.1476L42.8859 16.07ZM43.1925 15.1193L39.995 8.91931L39.0691 9.39323L42.2666 15.5932L43.1925 15.1193ZM39.995 8.91931C39.8151 8.57045 39.3908 8.4347 39.0406 8.61395L39.5163 9.53634C39.3551 9.61884 39.1519 9.55382 39.0691 9.39323L39.995 8.91931ZM39.0406 8.61395C38.8021 8.73596 38.6921 8.95306 38.6621 9.14507L39.6907 9.30431C39.6865 9.33142 39.6749 9.37436 39.6442 9.42113C39.6118 9.47044 39.5669 9.51047 39.5163 9.53634L39.0406 8.61395ZM38.6633 9.13771L37.73 14.6018L38.7562 14.7758L39.6895 9.31167L38.6633 9.13771ZM38.4706 14.2224L33.4638 11.7986L33.0089 12.7313L38.0156 15.1552L38.4706 14.2224ZM33.4709 11.8021C33.2967 11.7145 33.0555 11.6773 32.8171 11.7993L33.2927 12.7217C33.2422 12.7476 33.1833 12.7607 33.1243 12.7582C33.0683 12.7559 33.0264 12.7403 33.0018 12.7279L33.4709 11.8021ZM32.8171 11.7993C32.4711 11.9763 32.3328 12.4055 32.5105 12.7501L33.4364 12.2762C33.482 12.3647 33.4819 12.4566 33.4585 12.529C33.4352 12.6014 33.3816 12.6762 33.2927 12.7217L32.8171 11.7993ZM32.5105 12.7501L35.708 18.95L36.6339 18.4761L33.4364 12.2762L32.5105 12.7501ZM35.708 18.95C35.8879 19.2989 36.3122 19.4347 36.6624 19.2555L36.1867 18.333C36.3479 18.2505 36.5511 18.3155 36.6339 18.4761L35.708 18.95ZM36.6624 19.2555C37.0126 19.0762 37.1489 18.6535 36.9689 18.3046L36.043 18.7786C35.9602 18.618 36.0255 18.4155 36.1867 18.333L36.6624 19.2555ZM36.9689 18.3046L34.0296 12.6053L33.1037 13.0792L36.043 18.7786L36.9689 18.3046ZM33.339 13.3086L38.0722 15.602L38.5275 14.6694L33.7943 12.376L33.339 13.3086ZM38.057 15.5943C38.2643 15.7032 38.5086 15.6983 38.7062 15.5972L38.2304 14.6748C38.325 14.6264 38.4397 14.6229 38.5427 14.677L38.057 15.5943ZM38.7062 15.5972C38.7925 15.553 38.884 15.4863 38.9579 15.3858C39.0324 15.2846 39.0693 15.176 39.0848 15.0768L38.0561 14.9175C38.0615 14.883 38.0774 14.8284 38.1184 14.7727C38.1588 14.7177 38.2043 14.6881 38.2304 14.6748L38.7062 15.5972ZM39.0835 15.0843L39.9683 9.91554L38.9421 9.74121L38.0574 14.91L39.0835 15.0843ZM38.9922 10.0653L41.9316 15.7646L42.8575 15.2908L39.9181 9.59141L38.9922 10.0653ZM41.9316 15.7646C42.1093 16.1092 42.5401 16.2471 42.8859 16.07L42.4103 15.1476C42.4991 15.1022 42.5914 15.1023 42.664 15.1256C42.7367 15.1488 42.8118 15.2022 42.8575 15.2908L41.9316 15.7646Z" fill="black"/>
<path d="M47.0526 14.0669C47.1536 14.0342 47.2063 13.9311 47.1734 13.8305L45.007 7.20263C44.9741 7.10199 44.8707 7.04957 44.7696 7.08234C44.6686 7.11511 44.616 7.21819 44.6489 7.31878L46.8152 13.9466C46.8481 14.0473 46.9516 14.0997 47.0526 14.0669Z" fill="black"/>
<path d="M47.2138 14.56C47.5881 14.4386 47.7902 14.0429 47.6683 13.67L46.6784 13.991C46.6223 13.8193 46.7191 13.6298 46.8915 13.5739L47.2138 14.56ZM47.6683 13.67L45.5019 7.0421L44.5121 7.36316L46.6784 13.991L47.6683 13.67ZM45.5019 7.0421C45.38 6.66913 44.9828 6.46784 44.6085 6.58927L44.9308 7.57534C44.7584 7.63124 44.5682 7.53485 44.5121 7.36316L45.5019 7.0421ZM44.6085 6.58927C44.2342 6.71071 44.0321 7.10639 44.1539 7.47931L45.1438 7.15824C45.1999 7.32993 45.1031 7.51945 44.9308 7.57534L44.6085 6.58927ZM44.1539 7.47931L46.3203 14.1072L47.3102 13.7861L45.1438 7.15824L44.1539 7.47931ZM46.3203 14.1072C46.4422 14.4801 46.8394 14.6814 47.2138 14.56L46.8915 13.5739C47.0638 13.518 47.254 13.6144 47.3102 13.7861L46.3203 14.1072Z" fill="black"/>
<path d="M55.2185 12.1051C56.1756 11.9466 57.1063 11.3926 57.6408 10.5776C57.6731 10.5333 57.6856 10.4922 57.6762 10.4352C57.6596 10.3356 57.5648 10.2683 57.4649 10.2849C57.3983 10.2959 57.3759 10.3093 57.3353 10.36C57.2338 10.484 57.1427 10.6113 57.0355 10.7315C56.5421 11.2666 55.8758 11.6159 55.1565 11.7349C53.3462 12.0346 51.6514 10.823 51.3506 9.01974C51.0498 7.21644 52.261 5.5286 54.0713 5.22895C55.0337 5.0697 55.778 5.3073 56.5795 5.82805C56.6123 5.84708 56.6456 5.87083 56.6836 5.8645C56.8028 5.8448 56.8996 5.77998 56.8767 5.64237C56.8689 5.59492 56.8372 5.55142 56.7981 5.52373C56.0377 4.92783 54.9577 4.70192 54.0099 4.85883C51.9947 5.1924 50.6395 7.07472 50.9743 9.08201C51.3083 11.0846 53.2083 12.4378 55.2185 12.1051Z" fill="black"/>
<path d="M57.6408 10.5776L57.2177 10.2759L57.2114 10.2848L57.2052 10.2939L57.6408 10.5776ZM57.3353 10.3599L57.7387 10.6878L57.7423 10.6833L57.3353 10.3599ZM57.0355 10.7315L57.4186 11.0822L57.4217 11.0791L57.4243 11.076L57.0355 10.7315ZM56.5795 5.82804L56.2954 6.2624L56.3058 6.26914L56.3167 6.27541L56.5795 5.82804ZM56.7982 5.52372L56.4765 5.93122L56.4859 5.93853L56.4952 5.94548L56.7982 5.52372ZM55.3038 12.6166C56.3885 12.437 57.454 11.8108 58.077 10.8612L57.2052 10.2939C56.7591 10.9745 55.9628 11.4561 55.1331 11.5935L55.3038 12.6166ZM58.0645 10.8791C58.1056 10.8218 58.1514 10.7428 58.178 10.6412C58.205 10.5373 58.204 10.4384 58.1894 10.3502L57.1625 10.5202C57.1573 10.489 57.1552 10.4392 57.1703 10.381C57.1849 10.3254 57.2083 10.2891 57.2177 10.2759L58.0645 10.8791ZM58.1894 10.3502C58.1259 9.9681 57.7631 9.70987 57.3795 9.77334L57.5503 10.7964C57.3665 10.8268 57.1932 10.703 57.1625 10.5202L58.1894 10.3502ZM57.3795 9.77334C57.3291 9.78169 57.2302 9.80005 57.1276 9.86014C57.0235 9.9207 56.9595 9.99812 56.9288 10.0366L57.7423 10.6833C57.7522 10.6712 57.7194 10.7165 57.6533 10.755C57.5883 10.793 57.5341 10.7991 57.5503 10.7964L57.3795 9.77334ZM56.9324 10.0321C56.7987 10.1952 56.7487 10.2725 56.6462 10.387L57.4243 11.076C57.5367 10.9502 57.6689 10.7729 57.7387 10.6877L56.9324 10.0321ZM56.6519 10.3808C56.2402 10.8274 55.6807 11.1226 55.0712 11.2234L55.2419 12.2464C56.071 12.1092 56.844 11.7059 57.4186 11.0822L56.6519 10.3808ZM55.0712 11.2234C53.5456 11.4759 52.1179 10.4564 51.8641 8.93469L50.8372 9.10471C51.1849 11.1895 53.1474 12.5931 55.2419 12.2464L55.0712 11.2234ZM51.8641 8.93469C51.6104 7.41393 52.6301 5.99319 54.1567 5.74046L53.9859 4.71746C51.8924 5.06404 50.4893 7.01897 50.8372 9.10471L51.8641 8.93469ZM54.1567 5.74046C54.9587 5.60772 55.5724 5.79278 56.2954 6.2624L56.8637 5.39373C55.9836 4.82182 55.1086 4.53163 53.9859 4.71746L54.1567 5.74046ZM56.3167 6.27541C56.3177 6.27599 56.3188 6.27676 56.324 6.27977C56.3276 6.28216 56.3349 6.28646 56.3427 6.29107C56.3583 6.29999 56.3859 6.31539 56.4198 6.33038C56.4895 6.36081 56.6139 6.40162 56.769 6.37601L56.5983 5.35297C56.7149 5.33363 56.8039 5.36578 56.8393 5.38113C56.8481 5.38512 56.8549 5.38854 56.8591 5.39072C56.8611 5.39186 56.8627 5.39274 56.8637 5.39331C56.8648 5.39388 56.8658 5.39424 56.8658 5.39424C56.8658 5.39424 56.8653 5.39404 56.8643 5.39347C56.8632 5.39284 56.8622 5.39212 56.8601 5.39093C56.857 5.38901 56.8502 5.38486 56.8429 5.38071L56.3167 6.27541ZM56.769 6.37601C56.884 6.35693 57.0574 6.30679 57.2005 6.16549C57.3681 5.99956 57.4264 5.77479 57.39 5.55737L56.363 5.72734C56.3578 5.69639 56.3557 5.64521 56.374 5.58397C56.3932 5.52123 56.427 5.46876 56.4666 5.42981C56.5036 5.39305 56.5395 5.37413 56.5603 5.36505C56.5811 5.35598 56.5952 5.35349 56.5983 5.35297L56.769 6.37601ZM57.39 5.55737C57.3551 5.34747 57.2276 5.19228 57.1011 5.1019L56.4952 5.94548C56.4661 5.92448 56.4395 5.8983 56.4182 5.86641C56.3963 5.83457 56.3734 5.78816 56.363 5.72734L57.39 5.55737ZM57.1198 5.11619C56.2308 4.41933 54.9983 4.16954 53.9245 4.34732L54.0947 5.37034C54.9171 5.23428 55.8451 5.4363 56.4765 5.93122L57.1198 5.11619ZM53.9245 4.34732C51.6267 4.72766 50.0788 6.87633 50.4609 9.16699L51.4877 8.99701C51.2002 7.27304 52.3625 5.65708 54.0947 5.37034L53.9245 4.34732ZM50.4609 9.16699C50.842 11.452 53.01 12.9962 55.3038 12.6166L55.1331 11.5935C53.4066 11.8794 51.7746 10.717 51.4877 8.99701L50.4609 9.16699Z" fill="black"/>
<path d="M62.254 4.27711L62.051 11.2445C62.0478 11.3503 62.1275 11.4345 62.2337 11.4375C62.3398 11.4406 62.4242 11.3613 62.4273 11.2554L62.5298 7.74526L66.8161 7.86939L66.7135 11.3796C66.7104 11.4853 66.79 11.5694 66.8962 11.5726C67.0024 11.5756 67.0867 11.4962 67.0898 11.3904L67.2933 4.42302C67.2965 4.31723 67.2168 4.23311 67.1107 4.23004C67.0045 4.22696 66.9196 4.30633 66.917 4.41212L66.827 7.48953L62.5407 7.3654L62.6308 4.28801C62.6339 4.18222 62.5543 4.0981 62.4481 4.09503C62.3419 4.09195 62.2571 4.17132 62.254 4.27711Z" fill="black"/>
<path d="M62.5298 7.74526L62.5449 7.227L62.0244 7.21191L62.0093 7.73022L62.5298 7.74526ZM66.8161 7.86939L67.336 7.88443L67.3511 7.36617L66.8311 7.35108L66.8161 7.86939ZM66.827 7.48952L66.8119 8.00783L67.3324 8.02287L67.3475 7.50456L66.827 7.48952ZM62.5407 7.36539L62.0208 7.35035L62.0057 7.86866L62.5256 7.8837L62.5407 7.36539ZM61.734 4.26204L61.5305 11.2295L62.5709 11.2596L62.7744 4.29217L61.734 4.26204ZM61.5305 11.2295C61.519 11.6215 61.8251 11.9444 62.2186 11.9558L62.2487 10.9192C62.4299 10.9244 62.5766 11.0791 62.5709 11.2596L61.5305 11.2295ZM62.2186 11.9558C62.612 11.9672 62.9363 11.6626 62.9478 11.2705L61.9073 11.2404C61.9125 11.0599 62.0676 10.914 62.2487 10.9192L62.2186 11.9558ZM62.9478 11.2705L63.0503 7.76035L62.0093 7.73022L61.9073 11.2404L62.9478 11.2705ZM62.5147 8.26357L66.801 8.3877L66.8311 7.35108L62.5449 7.227L62.5147 8.26357ZM66.2956 7.8543L66.193 11.3645L67.234 11.3946L67.336 7.88443L66.2956 7.8543ZM66.193 11.3645C66.1816 11.7565 66.4876 12.0795 66.8811 12.0908L66.9113 11.0542C67.0924 11.0595 67.2392 11.2141 67.234 11.3946L66.193 11.3645ZM66.8811 12.0908C67.2746 12.1022 67.5989 11.7975 67.6103 11.4055L66.5699 11.3754C66.5751 11.1949 66.7302 11.049 66.9113 11.0542L66.8811 12.0908ZM67.6103 11.4055L67.8133 4.43808L66.7729 4.40795L66.5699 11.3754L67.6103 11.4055ZM67.8133 4.43808C67.8248 4.04604 67.5192 3.72313 67.1258 3.71173L67.0956 4.74833C66.9144 4.74309 66.7676 4.58841 66.7729 4.40795L67.8133 4.43808ZM67.1258 3.71173C66.7323 3.70034 66.408 4.00501 66.3965 4.39705L67.437 4.42717C67.4318 4.60764 67.2767 4.75358 67.0956 4.74833L67.1258 3.71173ZM66.3965 4.39705L66.3065 7.47443L67.3475 7.50456L67.437 4.42717L66.3965 4.39705ZM66.8421 6.97121L62.5558 6.84713L62.5256 7.8837L66.8119 8.00783L66.8421 6.97121ZM63.0612 7.38048L63.1508 4.30307L62.1103 4.27294L62.0208 7.35035L63.0612 7.38048ZM63.1508 4.30307C63.1622 3.91104 62.8567 3.58812 62.4632 3.57673L62.433 4.61332C62.2513 4.60808 62.1051 4.4534 62.1103 4.27294L63.1508 4.30307ZM62.4632 3.57673C62.0697 3.56533 61.7454 3.87 61.734 4.26204L62.7744 4.29217C62.7692 4.47263 62.6141 4.61857 62.433 4.61332L62.4632 3.57673Z" fill="black"/>
<path d="M77.6001 13.4613C77.6959 13.4939 77.8062 13.44 77.839 13.3444L78.7244 10.7634L81.1186 11.5786C82.2887 11.9769 83.5452 11.3627 83.9449 10.1973C84.3467 9.02745 83.7331 7.78151 82.5589 7.38168L79.9861 6.50585C79.8903 6.47318 79.7799 6.5271 79.7471 6.62267L77.4825 13.223C77.4497 13.3187 77.5038 13.4286 77.6001 13.4613ZM80.0407 6.92611L82.4355 7.74132C83.4041 8.0711 83.9199 9.11099 83.5889 10.076C83.2594 11.0365 82.2049 11.5518 81.2404 11.2235L78.8462 10.4084L80.0407 6.92611Z" fill="black"/>
<path d="M78.7244 10.7634L78.893 10.2728L78.4001 10.1051L78.232 10.5957L78.7244 10.7634ZM80.0407 6.92613L80.2093 6.43545L79.717 6.26776L79.5483 6.75844L80.0407 6.92613ZM78.8462 10.4084L78.3538 10.2407L78.1857 10.7314L78.6781 10.8991L78.8462 10.4084ZM77.4315 13.9519C77.7995 14.0772 78.206 13.8787 78.3314 13.5121L77.3466 13.1767C77.3789 13.0826 77.4455 13.0189 77.5137 12.9854C77.5824 12.9519 77.6735 12.9385 77.7682 12.9706L77.4315 13.9519ZM78.3314 13.5121L79.2168 10.9311L78.232 10.5957L77.3466 13.1767L78.3314 13.5121ZM78.5563 11.2541L80.9505 12.0693L81.2873 11.088L78.893 10.2728L78.5563 11.2541ZM80.9505 12.0693C82.3923 12.5601 83.9449 11.8013 84.4378 10.365L83.4525 10.0297C83.146 10.924 82.1846 11.3936 81.2873 11.088L80.9505 12.0693ZM84.4378 10.365C84.9318 8.92419 84.1734 7.38351 82.727 6.89108L82.3902 7.87237C83.2927 8.17959 83.7612 9.13076 83.4525 10.0297L84.4378 10.365ZM82.727 6.89108L80.1547 6.01519L79.8179 6.99649L82.3902 7.87237L82.727 6.89108ZM80.1547 6.01519C79.7867 5.88992 79.3802 6.08846 79.2542 6.455L80.2395 6.79038C80.2073 6.88454 80.1406 6.94822 80.0719 6.98171C80.0038 7.01521 79.9121 7.02869 79.8179 6.99649L80.1547 6.01519ZM79.2542 6.455L76.9901 13.0554L77.9754 13.3908L80.2395 6.79038L79.2542 6.455ZM76.9901 13.0554C76.8641 13.422 77.0635 13.8266 77.4315 13.9519L77.7682 12.9706C77.863 13.0028 77.9265 13.0691 77.9603 13.1374C77.9941 13.2056 78.0077 13.2966 77.9754 13.3908L76.9901 13.0554ZM79.8726 7.4168L82.2668 8.23196L82.6036 7.25067L80.2093 6.43545L79.8726 7.4168ZM82.2668 8.23196C82.9653 8.46976 83.3339 9.21596 83.096 9.90833L84.0813 10.2437C84.506 9.00601 83.8424 7.67253 82.6036 7.25067L82.2668 8.23196ZM83.096 9.90833C82.8597 10.5978 82.1008 10.9685 81.4091 10.7329L81.0723 11.7142C82.3085 12.1351 83.6586 11.4751 84.0813 10.2437L83.096 9.90833ZM81.4091 10.7329L79.0148 9.91772L78.6781 10.8991L81.0723 11.7142L81.4091 10.7329ZM79.3386 10.5761L80.5336 7.09382L79.5483 6.75844L78.3538 10.2407L79.3386 10.5761Z" fill="black"/>
<path d="M91.2526 19.6192C91.3411 19.6692 91.4598 19.6369 91.5097 19.5491C91.5649 19.453 92.2707 13.7906 92.3456 13.2129L92.4565 12.3399C92.469 12.2307 92.4924 12.1113 92.4987 12.0039C92.5008 11.9222 92.4805 11.8607 92.405 11.8179C92.342 11.7821 92.2551 11.7882 92.1968 11.8324L86.2309 16.4676C86.2195 16.4777 86.1987 16.5046 86.1888 16.5213C86.1388 16.6091 86.169 16.7313 86.2569 16.7814C86.3199 16.8172 86.4068 16.8111 86.4651 16.7669L88.1302 15.4699L91.4275 17.3427L91.1595 19.4331C91.149 19.4994 91.1943 19.5858 91.2526 19.6192ZM88.4576 15.2184L92.0719 12.4095L91.4822 16.9364L88.4576 15.2184Z" fill="black"/>
<path d="M92.3457 13.2129L92.862 13.2794V13.2778L92.3457 13.2129ZM92.4565 12.3399L92.9728 12.4048L92.9734 12.3985L92.4565 12.3399ZM92.4987 12.0039L93.0181 12.0322L93.0187 12.0254V12.0186L92.4987 12.0039ZM92.1968 11.8324L91.8824 11.4189L91.8793 11.4212L91.8767 11.4235L92.1968 11.8324ZM86.2309 16.4676L85.9108 16.0587L85.8968 16.0696L85.8832 16.0815L86.2309 16.4676ZM86.4651 16.7669L86.7795 17.1804L86.7826 17.1779L86.7858 17.1754L86.4651 16.7669ZM88.1302 15.4699L88.3878 15.0195L88.0849 14.8472L87.8096 15.0615L88.1302 15.4699ZM91.4275 17.3427L91.9438 17.4084L91.9881 17.0642L91.6852 16.8923L91.4275 17.3427ZM91.1595 19.4331L91.6737 19.5111L91.6747 19.5049L91.6758 19.4988L91.1595 19.4331ZM88.4576 15.2184L88.1375 14.8096L87.5249 15.2856L88.1999 15.6688L88.4576 15.2184ZM92.0719 12.4095L92.5882 12.4762L92.7511 11.2238L91.7518 12.0006L92.0719 12.4095ZM91.4822 16.9364L91.2245 17.3868L91.8986 17.7697L91.9985 17.0031L91.4822 16.9364ZM90.995 20.0696C91.3328 20.2615 91.7695 20.1425 91.9621 19.8059L91.0574 19.2923C91.1069 19.2058 91.1844 19.1558 91.2578 19.1357C91.3317 19.1156 91.4239 19.1194 91.5108 19.1687L90.995 20.0696ZM91.9621 19.8059C91.9985 19.7421 92.0136 19.6813 92.0141 19.6802C92.0193 19.6621 92.0229 19.6455 92.0256 19.6341C92.0308 19.6103 92.0354 19.5836 92.0401 19.5576C92.0495 19.5043 92.0604 19.4333 92.0734 19.3494C92.0984 19.1807 92.1312 18.9466 92.1687 18.6693C92.2442 18.114 92.3399 17.3776 92.4367 16.6274C92.6298 15.122 92.8245 13.5703 92.862 13.2794L91.8299 13.1465C91.7924 13.4332 91.5961 15.0016 91.4041 16.4957C91.3078 17.2454 91.212 17.9788 91.1371 18.5303C91.0996 18.8064 91.0679 19.0349 91.0434 19.1965C91.0314 19.2778 91.0215 19.3388 91.0148 19.3794C91.0111 19.4003 91.009 19.4108 91.008 19.4142C91.0075 19.4163 91.009 19.4107 91.0116 19.401C91.0127 19.3962 91.0158 19.3857 91.0205 19.3722C91.0241 19.363 91.0356 19.3308 91.0574 19.2923L91.9621 19.8059ZM92.862 13.2778L92.9728 12.4048L91.9402 12.275L91.8293 13.148L92.862 13.2778ZM92.9734 12.3985C92.9786 12.3543 92.9853 12.3121 92.9952 12.2454C93.0036 12.1865 93.014 12.1105 93.0181 12.0322L91.9787 11.9756C91.9771 12.0048 91.973 12.0421 91.9647 12.0971C91.9579 12.1443 91.9464 12.2163 91.9392 12.2813L92.9734 12.3985ZM93.0187 12.0186C93.0213 11.936 93.0145 11.8113 92.9541 11.68C92.8885 11.5379 92.7824 11.4352 92.6626 11.3674L92.1474 12.2683C92.1031 12.2434 92.0448 12.1929 92.0079 12.1126C91.9761 12.0433 91.9782 11.9901 91.9782 11.9893L93.0187 12.0186ZM92.6626 11.3674C92.4154 11.2269 92.1036 11.2521 91.8824 11.4189L92.5107 12.2459C92.4518 12.2902 92.3894 12.3086 92.3352 12.3124C92.2816 12.3162 92.215 12.3067 92.1474 12.2683L92.6626 11.3674ZM91.8767 11.4235L85.9108 16.0587L86.551 16.8764L92.5169 12.2412L91.8767 11.4235ZM85.8832 16.0815C85.8416 16.1187 85.8104 16.158 85.7979 16.174C85.7823 16.1943 85.7583 16.2266 85.737 16.2645L86.6411 16.7781C86.6338 16.791 86.6281 16.7993 86.626 16.802C86.6239 16.8055 86.6218 16.808 86.6202 16.8099C86.6187 16.8117 86.6161 16.8152 86.6119 16.8201C86.6093 16.8227 86.6062 16.8266 86.601 16.8316C86.5968 16.8361 86.589 16.8441 86.5781 16.8537L85.8832 16.0815ZM85.737 16.2645C85.5527 16.5863 85.6464 17.0317 85.9988 17.2318L86.5146 16.3309C86.6093 16.3847 86.6577 16.4677 86.6754 16.5372C86.6931 16.6061 86.6895 16.6936 86.6411 16.7781L85.737 16.2645ZM85.9988 17.2318C86.2465 17.3724 86.5578 17.3472 86.7795 17.1804L86.1513 16.3534C86.2101 16.3091 86.2726 16.2906 86.3262 16.2869C86.3803 16.2831 86.4469 16.2925 86.5146 16.3309L85.9988 17.2318ZM86.7858 17.1754L88.4508 15.8784L87.8096 15.0615L86.1445 16.3584L86.7858 17.1754ZM87.8726 15.9204L91.1693 17.7932L91.6852 16.8923L88.3878 15.0195L87.8726 15.9204ZM90.9112 17.277L90.6431 19.3674L91.6758 19.4988L91.9438 17.4084L90.9112 17.277ZM90.6447 19.3551C90.6187 19.5247 90.665 19.6731 90.716 19.7728C90.767 19.8736 90.8565 19.9908 90.995 20.0696L91.5108 19.1687C91.5909 19.2142 91.6279 19.2715 91.6446 19.3041C91.6607 19.3357 91.6898 19.4078 91.6737 19.5111L90.6447 19.3551ZM88.7777 15.6273L92.392 12.8183L91.7518 12.0006L88.1375 14.8096L88.7777 15.6273ZM91.5555 12.3427L90.9658 16.8696L91.9985 17.0031L92.5882 12.4762L91.5555 12.3427ZM91.7398 16.4859L88.7152 14.768L88.1999 15.6688L91.2245 17.3868L91.7398 16.4859Z" fill="black"/>
<path d="M99.4462 16.6673C99.3775 16.7481 99.3838 16.867 99.465 16.9354L101.01 18.2373L96.6116 23.4153C96.5465 23.4924 96.5564 23.6145 96.634 23.6797C96.7115 23.745 96.8339 23.7348 96.8994 23.6577L101.297 18.4797L102.842 19.7816C102.919 19.8468 103.045 19.833 103.11 19.7559C103.176 19.6788 103.166 19.5567 103.088 19.4915L99.7117 16.6453C99.6341 16.58 99.5118 16.5902 99.4462 16.6673Z" fill="black"/>
<path d="M101.01 18.2373L101.407 18.5723L101.743 18.1764L101.346 17.8415L101.01 18.2373ZM101.297 18.4797L101.633 18.0838L101.236 17.7489L100.9 18.1447L101.297 18.4797ZM99.0485 16.3324C98.8055 16.6186 98.8154 17.0669 99.1287 17.3312L99.8012 16.5396C99.9526 16.6672 99.949 16.8776 99.8433 17.0023L99.0485 16.3324ZM99.1287 17.3312L100.674 18.6332L101.346 17.8415L99.8012 16.5396L99.1287 17.3312ZM100.612 17.9024L96.2145 23.0804L97.0093 23.7502L101.407 18.5723L100.612 17.9024ZM96.2145 23.0804C95.9631 23.3761 96.0011 23.8254 96.2977 24.0755L96.9702 23.2839C97.0462 23.3482 97.0816 23.4332 97.0879 23.5089C97.0941 23.5847 97.0738 23.6743 97.0093 23.7502L96.2145 23.0804ZM96.2977 24.0755C96.5944 24.3258 97.0457 24.2883 97.2966 23.9926L96.5018 23.3228C96.5663 23.2468 96.6517 23.2117 96.7277 23.2054C96.8042 23.199 96.8937 23.2196 96.9702 23.2839L96.2977 24.0755ZM97.2966 23.9926L101.695 18.8146L100.9 18.1447L96.5018 23.3228L97.2966 23.9926ZM100.961 18.8755L102.506 20.1774L103.178 19.3858L101.633 18.0838L100.961 18.8755ZM102.506 20.1774C102.815 20.4385 103.268 20.3735 103.508 20.0908L102.713 19.421C102.776 19.3467 102.857 19.3133 102.928 19.3062C103 19.299 103.095 19.3156 103.178 19.3858L102.506 20.1774ZM103.508 20.0908C103.759 19.7951 103.721 19.3458 103.424 19.0956L102.752 19.8873C102.676 19.823 102.64 19.738 102.634 19.6623C102.628 19.5865 102.648 19.4969 102.713 19.421L103.508 20.0908ZM103.424 19.0956L100.048 16.2494L99.3754 17.0411L102.752 19.8873L103.424 19.0956ZM100.048 16.2494C99.7507 15.9992 99.2999 16.0367 99.0485 16.3324L99.8433 17.0023C99.7788 17.0782 99.6934 17.1133 99.6174 17.1197C99.5415 17.1259 99.4514 17.1054 99.3754 17.0411L100.048 16.2494Z" fill="black"/>
<path d="M103.783 31.021C104.393 31.773 105.336 32.3071 106.311 32.3691C106.366 32.3748 106.408 32.3656 106.453 32.3293C106.532 32.2658 106.544 32.1508 106.48 32.0723C106.437 32.0199 106.415 32.0072 106.351 31.997C106.192 31.97 106.036 31.9535 105.878 31.9197C105.168 31.7557 104.535 31.3501 104.077 30.7852C102.923 29.3634 103.146 27.297 104.574 26.148C106.001 24.9991 108.072 25.218 109.225 26.6397C109.838 27.3955 109.998 28.158 109.937 29.1094C109.937 29.147 109.933 29.1876 109.957 29.2175C110.032 29.3111 110.137 29.3631 110.246 29.2754C110.283 29.2452 110.306 29.1963 110.311 29.1489C110.457 28.1963 110.122 27.1484 109.518 26.4039C108.234 24.8213 105.923 24.5735 104.334 25.8525C102.749 27.1285 102.503 29.4421 103.783 31.021Z" fill="black"/>
<path d="M106.311 32.3691L106.366 31.8535L106.355 31.8523L106.344 31.8517L106.311 32.3691ZM106.351 31.9971L106.263 32.5082L106.269 32.5091L106.351 31.9971ZM105.878 31.9198L105.761 32.4249L105.765 32.4258L105.769 32.4267L105.878 31.9198ZM109.937 29.1094L109.418 29.0769L109.417 29.0893L109.417 29.1017L109.937 29.1094ZM110.311 29.1489L109.796 29.0706L109.795 29.0824L109.793 29.0942L110.311 29.1489ZM103.379 31.3469C104.07 32.1991 105.141 32.8143 106.278 32.8866L106.344 31.8517C105.53 31.7998 104.717 31.347 104.188 30.6951L103.379 31.3469ZM106.256 32.8848C106.327 32.8922 106.418 32.893 106.52 32.8659C106.624 32.8382 106.71 32.7888 106.78 32.7326L106.126 31.9261C106.15 31.9062 106.193 31.8796 106.251 31.8641C106.307 31.8492 106.35 31.8518 106.366 31.8535L106.256 32.8848ZM106.78 32.7326C107.082 32.4891 107.129 32.0477 106.885 31.7464L106.075 32.3982C105.958 32.254 105.981 32.0426 106.126 31.9261L106.78 32.7326ZM106.885 31.7464C106.853 31.7067 106.788 31.6301 106.685 31.5704C106.581 31.5102 106.482 31.4927 106.433 31.485L106.269 32.5091C106.284 32.5115 106.228 32.5055 106.162 32.4673C106.097 32.4296 106.065 32.3854 106.075 32.3982L106.885 31.7464ZM106.439 31.486C106.23 31.4504 106.138 31.445 105.988 31.4128L105.769 32.4267C105.934 32.4621 106.154 32.4896 106.263 32.5081L106.439 31.486ZM105.996 31.4146C105.403 31.2777 104.869 30.9378 104.481 30.4593L103.672 31.1111C104.2 31.7625 104.933 32.2337 105.761 32.4249L105.996 31.4146ZM104.481 30.4593C103.509 29.261 103.697 27.521 104.901 26.5514L104.246 25.7448C102.596 27.0732 102.337 29.4659 103.672 31.1111L104.481 30.4593ZM104.901 26.5514C106.104 25.5824 107.848 25.7666 108.82 26.9657L109.63 26.3138C108.296 24.6694 105.897 24.4158 104.246 25.7448L104.901 26.5514ZM108.82 26.9657C109.331 27.5955 109.472 28.2189 109.418 29.0769L110.457 29.142C110.523 28.0971 110.345 27.1956 109.63 26.3138L108.82 26.9657ZM109.417 29.1017C109.417 29.1028 109.417 29.1042 109.417 29.1101C109.417 29.1147 109.416 29.1231 109.416 29.1322C109.416 29.1501 109.416 29.1814 109.42 29.2184C109.428 29.2936 109.453 29.4218 109.552 29.5434L110.361 28.8916C110.436 28.9834 110.452 29.0762 110.456 29.1143C110.457 29.1241 110.457 29.1317 110.457 29.1364C110.457 29.1388 110.457 29.1406 110.457 29.1418C110.457 29.143 110.457 29.1437 110.457 29.1437C110.457 29.1437 110.457 29.1432 110.457 29.1421C110.457 29.141 110.457 29.1395 110.457 29.1372C110.458 29.1335 110.458 29.1255 110.458 29.1173L109.417 29.1017ZM109.552 29.5434C109.625 29.6339 109.755 29.7595 109.948 29.8137C110.176 29.8773 110.401 29.8173 110.573 29.6788L109.919 28.8722C109.943 28.8525 109.987 28.8253 110.05 28.8111C110.114 28.7965 110.176 28.8003 110.23 28.8152C110.28 28.8293 110.314 28.8508 110.332 28.8646C110.351 28.8783 110.36 28.8892 110.361 28.8916L109.552 29.5434ZM110.573 29.6788C110.739 29.545 110.812 29.3582 110.828 29.2036L109.793 29.0942C109.797 29.0583 109.807 29.0227 109.824 28.9882C109.841 28.9538 109.871 28.9109 109.919 28.8722L110.573 29.6788ZM110.825 29.2272C110.996 28.1132 110.607 26.9215 109.923 26.078L109.113 26.7298C109.637 27.3753 109.917 28.2795 109.796 29.0706L110.825 29.2272ZM109.923 26.078C108.459 24.2733 105.82 23.9897 104.007 25.4492L104.661 26.2558C106.025 25.1573 108.01 25.3693 109.113 26.7298L109.923 26.078ZM104.007 25.4492C102.198 26.9052 101.917 29.5453 103.379 31.3469L104.188 30.6951C103.088 29.339 103.299 27.3518 104.661 26.2558L104.007 25.4492Z" fill="black"/>
<path d="M114.087 33.2651L107.901 36.5208C107.807 36.5703 107.773 36.6808 107.822 36.7743C107.871 36.8679 107.983 36.902 108.076 36.8526L111.193 35.2124L113.196 38.9895L110.079 40.6297C109.985 40.6791 109.951 40.7897 110.001 40.8832C110.05 40.9768 110.161 41.0109 110.255 40.9615L116.442 37.7058C116.536 37.6564 116.57 37.5459 116.52 37.4523C116.471 37.3587 116.36 37.3246 116.266 37.374L113.533 38.812L111.53 35.0349L114.263 33.5969C114.357 33.5475 114.392 33.437 114.342 33.3434C114.292 33.2498 114.181 33.2157 114.087 33.2651Z" fill="black"/>
<path d="M111.193 35.2124L111.654 34.9703L111.41 34.5117L110.95 34.7539L111.193 35.2124ZM113.196 38.9896L113.439 39.448L113.9 39.2058L113.656 38.7474L113.196 38.9896ZM113.533 38.812L113.073 39.0542L113.316 39.5127L113.776 39.2705L113.533 38.812ZM111.53 35.0349L111.287 34.5764L110.827 34.8186L111.07 35.2771L111.53 35.0349ZM113.844 32.8067L107.657 36.0624L108.144 36.9793L114.331 33.7236L113.844 32.8067ZM107.657 36.0624C107.309 36.2456 107.178 36.6698 107.362 37.0165L108.282 36.5322C108.367 36.6918 108.304 36.895 108.144 36.9793L107.657 36.0624ZM107.362 37.0165C107.546 37.3633 107.971 37.4943 108.32 37.3111L107.833 36.3942C107.994 36.3098 108.198 36.3725 108.282 36.5322L107.362 37.0165ZM108.32 37.3111L111.436 35.6709L110.95 34.7539L107.833 36.3942L108.32 37.3111ZM110.733 35.4546L112.736 39.2317L113.656 38.7474L111.654 34.9703L110.733 35.4546ZM112.953 38.531L109.836 40.1713L110.322 41.0882L113.439 39.448L112.953 38.531ZM109.836 40.1713C109.488 40.3544 109.356 40.7787 109.541 41.1254L110.461 40.6411C110.546 40.8007 110.483 41.0039 110.322 41.0882L109.836 40.1713ZM109.541 41.1254C109.724 41.4722 110.15 41.6032 110.498 41.42L110.012 40.503C110.172 40.4187 110.377 40.4814 110.461 40.6411L109.541 41.1254ZM110.498 41.42L116.685 38.1643L116.199 37.2473L110.012 40.503L110.498 41.42ZM116.685 38.1643C117.033 37.9811 117.165 37.5569 116.981 37.2101L116.06 37.6945C115.975 37.5349 116.038 37.3316 116.199 37.2473L116.685 38.1643ZM116.981 37.2101C116.797 36.8633 116.371 36.7324 116.023 36.9156L116.509 37.8325C116.349 37.9168 116.145 37.8542 116.06 37.6945L116.981 37.2101ZM116.023 36.9156L113.29 38.3535L113.776 39.2705L116.509 37.8325L116.023 36.9156ZM113.993 38.5699L111.991 34.7927L111.07 35.2771L113.073 39.0542L113.993 38.5699ZM111.774 35.4934L114.507 34.0554L114.02 33.1384L111.287 34.5764L111.774 35.4934ZM114.507 34.0554C114.854 33.8722 114.986 33.448 114.802 33.1013L113.882 33.5856C113.797 33.426 113.86 33.2228 114.02 33.1384L114.507 34.0554ZM114.802 33.1013C114.618 32.7544 114.192 32.6235 113.844 32.8067L114.331 33.7236C114.17 33.8079 113.966 33.7453 113.882 33.5856L114.802 33.1013Z" fill="black"/>
<path d="M30.3982 111.36L33.7677 113.557C33.8566 113.615 33.9743 113.594 34.0325 113.505C34.0907 113.417 34.0629 113.301 33.974 113.243L30.7621 111.148L32.5895 108.367L35.1429 110.032C35.2277 110.088 35.3481 110.062 35.4036 109.978C35.4618 109.89 35.4407 109.772 35.3518 109.714L32.7984 108.049L34.3878 105.63L37.5998 107.725C37.6887 107.782 37.8063 107.762 37.8645 107.673C37.9227 107.584 37.8949 107.469 37.806 107.411L34.4365 105.214C34.3476 105.156 34.234 105.179 34.1758 105.268L30.3438 111.1C30.2856 111.189 30.3093 111.302 30.3982 111.36Z" fill="black"/>
<path d="M30.7621 111.148L30.3266 110.864L30.0415 111.298L30.477 111.582L30.7621 111.148ZM32.5894 108.367L32.8745 107.933L32.439 107.649L32.154 108.083L32.5894 108.367ZM32.7984 108.049L32.3629 107.765L32.0779 108.199L32.5133 108.483L32.7984 108.049ZM34.3878 105.63L34.6728 105.197L34.2374 104.912L33.9523 105.346L34.3878 105.63ZM30.1132 111.793L33.4827 113.991L34.0528 113.123L30.6833 110.926L30.1132 111.793ZM33.4827 113.991C33.7976 114.196 34.243 114.132 34.468 113.789L33.597 113.221C33.7056 113.056 33.9157 113.033 34.0528 113.123L33.4827 113.991ZM34.468 113.789C34.6929 113.447 34.5739 113.014 34.2591 112.809L33.6889 113.676C33.5518 113.587 33.4884 113.387 33.597 113.221L34.468 113.789ZM34.2591 112.809L31.0471 110.715L30.477 111.582L33.6889 113.676L34.2591 112.809ZM31.1975 111.432L33.0249 108.651L32.154 108.083L30.3266 110.864L31.1975 111.432ZM32.3044 108.801L34.8578 110.466L35.428 109.598L32.8745 107.933L32.3044 108.801ZM34.8578 110.466C35.1832 110.678 35.6261 110.586 35.8391 110.262L34.9681 109.694C35.0228 109.611 35.1032 109.566 35.1779 109.55C35.2525 109.534 35.3444 109.544 35.428 109.598L34.8578 110.466ZM35.8391 110.262C36.0452 109.948 35.9805 109.504 35.6369 109.28L35.0667 110.148C34.9009 110.04 34.8784 109.831 34.9681 109.694L35.8391 110.262ZM35.6369 109.28L33.0834 107.615L32.5133 108.483L35.0667 110.148L35.6369 109.28ZM33.2339 108.333L34.8233 105.914L33.9523 105.346L32.3629 107.765L33.2339 108.333ZM34.1027 106.064L37.3147 108.158L37.8848 107.291L34.6728 105.197L34.1027 106.064ZM37.3147 108.158C37.6296 108.364 38.075 108.299 38.3 107.957L37.429 107.389C37.5376 107.224 37.7477 107.202 37.8848 107.291L37.3147 108.158ZM38.3 107.957C38.5249 107.615 38.4059 107.182 38.0911 106.977L37.521 107.845C37.3839 107.755 37.3204 107.554 37.429 107.389L38.3 107.957ZM38.0911 106.977L34.7215 104.78L34.1514 105.647L37.521 107.845L38.0911 106.977ZM34.7215 104.78C34.3922 104.565 33.9559 104.656 33.7403 104.984L34.6113 105.552C34.512 105.703 34.3031 105.746 34.1514 105.647L34.7215 104.78ZM33.7403 104.984L29.9083 110.816L30.7793 111.384L34.6113 105.552L33.7403 104.984ZM29.9083 110.816C29.6927 111.144 29.7837 111.578 30.1132 111.793L30.6833 110.926C30.8349 111.025 30.8785 111.233 30.7793 111.384L29.9083 110.816Z" fill="black"/>
<path d="M40.58 117.1C41.5942 117.539 42.9006 117.26 43.3682 116.188C44.5229 113.541 40.1043 113.652 41.0973 111.376C41.4823 110.493 42.5687 110.308 43.388 110.663C43.9372 110.9 44.3491 111.32 44.4976 111.909C44.5163 111.975 44.516 112.048 44.5346 112.114C44.5539 112.19 44.5759 112.236 44.6511 112.269C44.7486 112.311 44.8516 112.256 44.892 112.163C44.9035 112.137 44.9126 112.104 44.9109 112.072C44.8406 111.292 44.2398 110.617 43.54 110.314C42.5303 109.877 41.2171 110.148 40.7475 111.224C39.6023 113.849 44.0043 113.788 43.0228 116.038C42.634 116.929 41.5584 117.114 40.7302 116.755C40.2076 116.529 39.6757 116.131 39.4795 115.579C39.4363 115.461 39.4211 115.339 39.3906 115.216C39.3719 115.15 39.3475 115.097 39.2811 115.069C39.1836 115.027 39.0756 115.069 39.0332 115.166C39.0198 115.197 39.0152 115.231 39.0169 115.264C39.0917 116.13 39.8227 116.772 40.58 117.1Z" fill="black"/>
<path d="M44.4976 111.909L43.9928 112.035L43.9947 112.043L43.9968 112.05L44.4976 111.909ZM44.5346 112.114L45.0395 111.988L45.0376 111.98L45.0355 111.973L44.5346 112.114ZM44.9108 112.072L45.4306 112.044L45.4301 112.035L45.4293 112.025L44.9108 112.072ZM39.4795 115.579L39.97 115.406L39.9687 115.403L39.4795 115.579ZM39.3906 115.216L39.8961 115.092L39.8939 115.083L39.8914 115.074L39.3906 115.216ZM39.0169 115.264L38.4972 115.292L38.4976 115.3L38.4983 115.308L39.0169 115.264ZM40.3726 117.575C41.5645 118.091 43.2292 117.807 43.8456 116.394L42.8908 115.981C42.5718 116.712 41.6239 116.986 40.7875 116.624L40.3726 117.575ZM43.8456 116.394C44.1913 115.602 44.1417 114.935 43.8087 114.375C43.5069 113.867 42.9984 113.504 42.5934 113.219C42.143 112.902 41.81 112.675 41.6163 112.411C41.5306 112.293 41.4867 112.185 41.4747 112.073C41.4626 111.959 41.4788 111.802 41.5747 111.582L40.62 111.169C40.4676 111.518 40.4047 111.856 40.4396 112.183C40.4746 112.51 40.604 112.787 40.7748 113.021C41.0943 113.458 41.6076 113.795 41.9934 114.066C42.4246 114.369 42.7422 114.616 42.9131 114.903C43.0528 115.138 43.1224 115.45 42.8908 115.981L43.8456 116.394ZM41.5747 111.582C41.8029 111.059 42.5161 110.85 43.1805 111.138L43.5955 110.187C42.6213 109.765 41.1616 109.927 40.62 111.169L41.5747 111.582ZM43.1805 111.138C43.6071 111.323 43.89 111.628 43.9928 112.035L45.0024 111.782C44.8082 111.013 44.2672 110.478 43.5955 110.187L43.1805 111.138ZM43.9968 112.05C43.9941 112.04 43.9945 112.037 44 112.079C44.0037 112.106 44.0124 112.179 44.0338 112.255L45.0355 111.973C45.0382 111.982 45.0377 111.985 45.0322 111.944C45.0285 111.916 45.0199 111.843 44.9984 111.768L43.9968 112.05ZM44.0298 112.24C44.0424 112.29 44.0703 112.396 44.1423 112.5C44.2248 112.621 44.3338 112.697 44.4437 112.745L44.8586 111.794C44.8725 111.799 44.8969 111.812 44.925 111.834C44.9544 111.856 44.9804 111.884 45.0014 111.915C45.0388 111.969 45.0462 112.014 45.0395 111.988L44.0298 112.24ZM44.4437 112.745C44.8596 112.925 45.2397 112.667 45.3693 112.37L44.4146 111.957C44.4428 111.892 44.4954 111.833 44.572 111.797C44.6544 111.759 44.7605 111.751 44.8586 111.794L44.4437 112.745ZM45.3693 112.37C45.4002 112.3 45.4381 112.184 45.4306 112.044L44.3911 112.1C44.3889 112.06 44.3938 112.027 44.3984 112.007C44.4032 111.985 44.4092 111.969 44.4146 111.957L45.3693 112.37ZM45.4293 112.025C45.3383 111.015 44.58 110.199 43.7475 109.838L43.3326 110.79C43.8995 111.035 44.3429 111.568 44.3924 112.118L45.4293 112.025ZM43.7475 109.838C42.563 109.326 40.8894 109.598 40.2701 111.017L41.2248 111.431C41.5447 110.697 42.4976 110.428 43.3326 110.79L43.7475 109.838ZM40.2701 111.017C39.9259 111.807 39.9782 112.472 40.3098 113.031C40.6106 113.538 41.1165 113.906 41.5212 114.194C41.9704 114.513 42.3045 114.744 42.4994 115.011C42.586 115.129 42.6302 115.238 42.6425 115.35C42.6549 115.462 42.6394 115.616 42.5454 115.831L43.5001 116.245C43.6515 115.898 43.7132 115.562 43.6772 115.236C43.6412 114.91 43.5113 114.634 43.3413 114.401C43.0226 113.964 42.5117 113.624 42.1264 113.35C41.6963 113.044 41.3779 112.793 41.2061 112.503C41.065 112.266 40.9964 111.954 41.2248 111.431L40.2701 111.017ZM42.5454 115.831C42.3128 116.365 41.6092 116.571 40.9376 116.28L40.5227 117.231C41.5075 117.658 42.9553 117.494 43.5001 116.245L42.5454 115.831ZM40.9376 116.28C40.4745 116.079 40.0968 115.762 39.97 115.406L38.9888 115.753C39.2547 116.5 39.9406 116.979 40.5227 117.231L40.9376 116.28ZM39.9687 115.403C39.9594 115.377 39.9507 115.344 39.9393 115.291C39.9303 115.249 39.9137 115.163 39.8961 115.092L38.8852 115.339C38.898 115.392 38.9042 115.428 38.9212 115.508C38.9358 115.576 38.9563 115.663 38.9902 115.756L39.9687 115.403ZM39.8914 115.074C39.8608 114.966 39.7762 114.718 39.4885 114.593L39.0736 115.544C39.0469 115.533 39.0173 115.516 38.9884 115.491C38.9595 115.467 38.9374 115.441 38.9211 115.417C38.8919 115.373 38.885 115.34 38.8898 115.357L39.8914 115.074ZM39.4885 114.593C39.1274 114.437 38.7128 114.599 38.5559 114.959L39.5106 115.372C39.4384 115.538 39.2398 115.616 39.0736 115.544L39.4885 114.593ZM38.5559 114.959C38.5043 115.077 38.492 115.195 38.4972 115.292L39.5367 115.236C39.5384 115.268 39.5353 115.316 39.5106 115.372L38.5559 114.959ZM38.4983 115.308C38.5971 116.451 39.5392 117.214 40.3726 117.575L40.7875 116.624C40.1063 116.329 39.5864 115.809 39.5355 115.219L38.4983 115.308Z" fill="black"/>
<path d="M49.3407 112.72C49.3155 112.822 49.3745 112.926 49.4777 112.951L51.4428 113.431L49.8223 120.019C49.7982 120.117 49.8619 120.222 49.9604 120.245C50.0589 120.269 50.164 120.206 50.1881 120.108L51.8086 113.52L53.7736 114C53.8725 114.024 53.9786 113.956 54.0026 113.858C54.0265 113.759 53.963 113.655 53.8646 113.631L49.5685 112.582C49.47 112.558 49.3649 112.621 49.3407 112.72Z" fill="black"/>
<path d="M51.4428 113.431L51.9484 113.554L52.0721 113.051L51.5667 112.927L51.4428 113.431ZM51.8086 113.52L51.9325 113.016L51.427 112.893L51.3031 113.397L51.8086 113.52ZM48.8352 112.596C48.7457 112.96 48.9548 113.357 49.3538 113.454L49.6016 112.447C49.7941 112.495 49.8853 112.684 49.8463 112.843L48.8352 112.596ZM49.3538 113.454L51.3189 113.935L51.5667 112.927L49.6016 112.447L49.3538 113.454ZM50.9372 113.307L49.3167 119.896L50.3279 120.142L51.9484 113.554L50.9372 113.307ZM49.3167 119.896C49.2242 120.271 49.4588 120.657 49.8365 120.749L50.0843 119.742C50.1813 119.766 50.2509 119.826 50.2904 119.891C50.33 119.956 50.3516 120.045 50.3279 120.142L49.3167 119.896ZM49.8365 120.749C50.2142 120.841 50.6011 120.607 50.6937 120.231L49.6826 119.985C49.7064 119.888 49.767 119.819 49.8323 119.779C49.8975 119.74 49.9872 119.718 50.0843 119.742L49.8365 120.749ZM50.6937 120.231L52.3141 113.644L51.3031 113.397L49.6826 119.985L50.6937 120.231ZM51.6847 114.024L53.6497 114.503L53.8974 113.496L51.9325 113.016L51.6847 114.024ZM53.6497 114.503C54.0437 114.6 54.4195 114.341 54.508 113.981L53.4972 113.734C53.5201 113.64 53.5784 113.574 53.6388 113.536C53.6997 113.497 53.7918 113.471 53.8974 113.496L53.6497 114.503ZM54.508 113.981C54.6006 113.605 54.3659 113.22 53.9885 113.127L53.7408 114.134C53.6434 114.111 53.5742 114.05 53.5347 113.985C53.4951 113.92 53.4732 113.831 53.4972 113.734L54.508 113.981ZM53.9885 113.127L49.6923 112.078L49.4446 113.086L53.7408 114.134L53.9885 113.127ZM49.6923 112.078C49.3147 111.986 48.9278 112.22 48.8352 112.596L49.8463 112.843C49.8225 112.94 49.7619 113.009 49.6966 113.048C49.6313 113.088 49.5416 113.109 49.4446 113.086L49.6923 112.078Z" fill="black"/>
<path d="M57.4233 121.551C57.6106 121.57 57.785 121.433 57.8043 121.247C57.8245 121.055 57.6866 120.886 57.4946 120.867C57.3072 120.847 57.137 120.989 57.1177 121.176C57.098 121.362 57.2359 121.531 57.4233 121.551Z" fill="black"/>
<path d="M57.3691 122.066C57.8329 122.115 58.2722 121.781 58.3221 121.301L57.2869 121.193C57.2926 121.138 57.3212 121.095 57.3525 121.07C57.3837 121.046 57.4274 121.03 57.4769 121.035L57.3691 122.066ZM58.3221 121.301C58.3721 120.824 58.0265 120.4 57.5487 120.351L57.441 121.382C57.3467 121.373 57.277 121.287 57.2869 121.193L58.3221 121.301ZM57.5487 120.351C57.0657 120.301 56.6482 120.66 56.5998 121.122L57.6351 121.229C57.6304 121.279 57.6054 121.318 57.5752 121.343C57.544 121.369 57.4966 121.388 57.441 121.382L57.5487 120.351ZM56.5998 121.122C56.5509 121.594 56.896 122.017 57.3691 122.066L57.4769 121.035C57.5758 121.045 57.6455 121.131 57.6351 121.229L56.5998 121.122Z" fill="black"/>
<path d="M73.5294 120.873C73.6298 120.859 73.7032 120.761 73.6892 120.661C73.6751 120.561 73.5767 120.488 73.4763 120.502L69.9333 120.999C70.7083 119.189 73.2098 117.717 72.9027 115.564C72.7398 114.426 71.692 113.884 70.6162 114.037C70.1337 114.106 69.6621 114.289 69.3285 114.652C69.0328 114.971 68.8517 115.443 68.9136 115.877C68.9272 115.972 69.0219 116.056 69.1224 116.042C69.2468 116.024 69.279 115.942 69.2879 115.833C69.3248 115.41 69.3129 115.189 69.648 114.874C69.9229 114.611 70.2971 114.466 70.6698 114.413C71.5307 114.291 72.3978 114.693 72.5295 115.617C72.8199 117.651 70.0598 119.222 69.4706 121.177C69.4643 121.202 69.4638 121.231 69.4674 121.255C69.482 121.36 69.5752 121.429 69.6803 121.414L73.5294 120.873Z" fill="black"/>
<path d="M73.5294 120.873L73.6017 121.387L73.6027 121.387L73.5294 120.873ZM73.4763 120.502L73.5486 121.015H73.5497L73.4763 120.502ZM69.9333 120.999L69.4544 120.796L69.0922 121.641L70.0056 121.513L69.9333 120.999ZM69.3285 114.652L69.711 115.004L69.7126 115.002L69.3285 114.652ZM69.2879 115.833L68.7695 115.788L68.7689 115.791L69.2879 115.833ZM69.6481 114.874L70.0051 115.252L70.0082 115.248L69.6481 114.874ZM69.4706 121.177L68.9719 121.028L68.9683 121.041L68.9652 121.054L69.4706 121.177ZM69.6803 121.414L69.6075 120.901H69.6069L69.6803 121.414ZM73.6027 121.387C73.9874 121.332 74.2591 120.972 74.2044 120.588L73.1739 120.734C73.1598 120.636 73.19 120.549 73.2358 120.488C73.2816 120.427 73.3571 120.374 73.456 120.36L73.6027 121.387ZM74.2044 120.588C74.1498 120.205 73.788 119.934 73.4029 119.989L73.5497 121.015C73.4508 121.029 73.3633 120.999 73.3024 120.954C73.2415 120.908 73.1879 120.833 73.1739 120.734L74.2044 120.588ZM73.4034 119.989L69.8604 120.486L70.0056 121.513L73.5486 121.015L73.4034 119.989ZM70.4116 121.203C70.5782 120.814 70.8457 120.426 71.1757 120.011C71.3391 119.805 71.513 119.599 71.6931 119.385C71.8716 119.173 72.0558 118.954 72.2323 118.731C72.9256 117.856 73.6043 116.797 73.418 115.491L72.3874 115.637C72.5082 116.484 72.0897 117.238 71.4151 118.089C71.2501 118.298 71.0752 118.505 70.8957 118.718C70.7177 118.929 70.5339 119.147 70.359 119.367C70.0119 119.805 69.6756 120.279 69.4544 120.796L70.4116 121.203ZM73.418 115.491C73.203 113.989 71.8149 113.343 70.5428 113.523L70.6896 114.551C71.5687 114.426 72.2765 114.863 72.3874 115.637L73.418 115.491ZM70.5428 113.523C69.9864 113.603 69.3862 113.822 68.9449 114.302L69.7126 115.002C69.938 114.756 70.2805 114.608 70.6896 114.551L70.5428 113.523ZM68.9464 114.3C68.5628 114.713 68.3109 115.337 68.3984 115.95L69.4289 115.804C69.3925 115.55 69.5028 115.228 69.711 115.004L68.9464 114.3ZM68.3984 115.95C68.4462 116.286 68.7695 116.615 69.1957 116.555L69.049 115.529C69.1676 115.511 69.2619 115.555 69.3155 115.6C69.3675 115.642 69.4154 115.71 69.4289 115.804L68.3984 115.95ZM69.1957 116.555C69.3769 116.529 69.558 116.441 69.6793 116.263C69.7808 116.113 69.8 115.955 69.8063 115.876L68.7689 115.791C68.7669 115.82 68.7653 115.758 68.8174 115.681C68.8475 115.636 68.8892 115.597 68.9391 115.568C68.9865 115.54 69.0276 115.532 69.049 115.529L69.1957 116.555ZM69.8063 115.879C69.8287 115.627 69.8307 115.543 69.8557 115.459C69.8682 115.416 69.8911 115.358 70.0051 115.252L69.2915 114.497C69.0698 114.705 68.9308 114.915 68.8569 115.167C68.7939 115.379 68.784 115.618 68.7695 115.788L69.8063 115.879ZM70.0082 115.248C70.1836 115.081 70.446 114.969 70.7432 114.927L70.5969 113.9C70.1482 113.964 69.6621 114.143 69.2879 114.5L70.0082 115.248ZM70.7432 114.927C71.0763 114.879 71.3849 114.938 71.6082 115.069C71.819 115.194 71.9715 115.391 72.0142 115.69L73.0448 115.544C72.9558 114.919 72.6086 114.454 72.1381 114.177C71.679 113.907 71.1242 113.825 70.5969 113.9L70.7432 114.927ZM72.0142 115.69C72.1235 116.456 71.6676 117.191 70.9259 118.1C70.5808 118.523 70.1654 118.995 69.8193 119.461C69.468 119.934 69.1447 120.455 68.9719 121.028L69.9692 121.326C70.091 120.921 70.3335 120.513 70.6562 120.078C70.9847 119.636 71.3521 119.222 71.7337 118.754C72.4473 117.879 73.2259 116.811 73.0448 115.544L72.0142 115.69ZM68.9652 121.054C68.9412 121.15 68.9402 121.246 68.9516 121.328L69.9827 121.182C69.9853 121.203 69.9859 121.221 69.9853 121.236C69.9848 121.252 69.9827 121.273 69.9765 121.3L68.9652 121.054ZM68.9516 121.328C69.0073 121.717 69.3639 121.983 69.7537 121.928L69.6069 120.901C69.7865 120.875 69.9567 121.004 69.9827 121.182L68.9516 121.328ZM69.7527 121.928L73.6017 121.387L73.4565 120.36L69.6075 120.901L69.7527 121.928Z" fill="black"/>
<path d="M80.5091 119.335C82.1601 118.823 81.7604 116.458 81.3732 115.218C80.963 113.905 80.0282 111.786 78.2762 112.329C76.5935 112.85 77.039 115.186 77.431 116.44C77.8182 117.68 78.8675 119.844 80.5091 119.335ZM80.4207 118.969C79.0185 119.404 78.1133 117.362 77.7906 116.329C77.4736 115.313 76.988 113.126 78.3897 112.692C79.8882 112.228 80.6689 114.243 81.0088 115.331C81.3159 116.314 81.7713 118.55 80.4207 118.969Z" fill="black"/>
<path d="M80.6637 119.83C81.7875 119.482 82.1596 118.491 82.2247 117.587C82.2892 116.683 82.0722 115.711 81.8702 115.064L80.8761 115.372C81.0614 115.966 81.2378 116.796 81.1863 117.513C81.1348 118.228 80.8813 118.676 80.3546 118.84L80.6637 119.83ZM81.8702 115.064C81.66 114.391 81.3003 113.457 80.734 112.753C80.4477 112.397 80.0886 112.075 79.6436 111.889C79.1871 111.697 78.6739 111.663 78.1217 111.834L78.4308 112.824C78.7546 112.724 79.0153 112.75 79.2397 112.845C79.4755 112.943 79.7039 113.131 79.922 113.402C80.3629 113.95 80.6762 114.732 80.8761 115.372L81.8702 115.064ZM78.1217 111.834C77.5777 112.003 77.1869 112.328 76.9334 112.747C76.6872 113.154 76.5841 113.624 76.556 114.078C76.5003 114.978 76.7319 115.947 76.9339 116.594L77.928 116.286C77.7381 115.678 77.5512 114.853 77.5949 114.141C77.6168 113.789 77.6938 113.5 77.825 113.283C77.9483 113.078 78.1336 112.916 78.4308 112.824L78.1217 111.834ZM76.9339 116.594C77.1369 117.245 77.521 118.166 78.0956 118.87C78.6708 119.575 79.5457 120.177 80.6637 119.83L80.3546 118.84C79.831 119.002 79.3609 118.776 78.9034 118.216C78.4464 117.656 78.1118 116.875 77.928 116.286L76.9339 116.594ZM80.2656 118.474C79.8903 118.59 79.5176 118.419 79.1168 117.888C78.7265 117.371 78.4412 116.666 78.2877 116.175L77.2936 116.483C77.4627 117.024 77.7911 117.857 78.2851 118.511C78.7676 119.15 79.5488 119.782 80.5753 119.465L80.2656 118.474ZM78.2877 116.175C78.1341 115.683 77.9535 114.946 77.966 114.302C77.9785 113.64 78.1768 113.3 78.5443 113.187L78.2351 112.197C77.2004 112.517 76.9407 113.489 76.925 114.282C76.9094 115.095 77.1301 115.959 77.2936 116.483L78.2877 116.175ZM78.5443 113.187C78.791 113.11 78.9841 113.138 79.1548 113.221C79.3406 113.311 79.5291 113.483 79.7128 113.734C80.0839 114.243 80.3442 114.948 80.5118 115.485L81.5059 115.177C81.3336 114.625 81.0333 113.779 80.5544 113.124C80.3129 112.794 80.0038 112.48 79.6113 112.289C79.2038 112.091 78.7369 112.041 78.2351 112.197L78.5443 113.187ZM80.5118 115.485C80.658 115.953 80.8308 116.697 80.8157 117.35C80.8006 118.036 80.5987 118.371 80.2656 118.474L80.5753 119.465C81.5933 119.149 81.839 118.156 81.8567 117.373C81.8749 116.558 81.6667 115.692 81.5059 115.177L80.5118 115.485Z" fill="black"/>
<path d="M90.7228 114.907C90.8139 114.862 90.8529 114.746 90.8076 114.655C90.7623 114.565 90.6457 114.526 90.5552 114.571L87.3495 116.155C87.5129 114.193 89.4221 112.011 88.4493 110.064C87.935 109.035 86.7696 108.85 85.7968 109.332C85.3601 109.549 84.9708 109.871 84.7694 110.32C84.5893 110.716 84.5664 111.221 84.7626 111.613C84.8053 111.699 84.9219 111.749 85.013 111.704C85.1254 111.648 85.1296 111.56 85.1041 111.455C85.0052 111.041 84.9234 110.834 85.1426 110.43C85.3201 110.095 85.6298 109.84 85.9665 109.673C86.7447 109.287 87.6951 109.396 88.112 110.232C89.0306 112.071 86.9081 114.429 86.9669 116.469C86.969 116.494 86.9773 116.522 86.9882 116.544C87.0356 116.639 87.1454 116.675 87.2407 116.628L90.7228 114.907Z" fill="black"/>
<path d="M90.7228 114.907L90.9544 115.371H90.9549L90.7228 114.907ZM90.5552 114.571L90.7863 115.036L90.7868 115.035L90.5552 114.571ZM87.3495 116.155L86.831 116.112L86.7545 117.028L87.5811 116.619L87.3495 116.155ZM84.7694 110.32L85.243 110.534L85.2441 110.532L84.7694 110.32ZM85.1041 111.455L84.5976 111.574L84.5981 111.577L85.1041 111.455ZM85.1426 110.43L85.6006 110.677L85.6027 110.673L85.1426 110.43ZM86.9669 116.469L86.4464 116.483L86.4469 116.497L86.448 116.511L86.9669 116.469ZM87.2407 116.628L87.0096 116.164H87.0091L87.2407 116.628ZM90.9549 115.371C91.3031 115.199 91.4468 114.771 91.2734 114.425L90.3418 114.887C90.297 114.797 90.2986 114.706 90.323 114.634C90.347 114.561 90.4016 114.487 90.4911 114.443L90.9549 115.371ZM91.2734 114.425C91.1001 114.078 90.6712 113.935 90.323 114.107L90.7868 115.035C90.6978 115.079 90.6051 115.078 90.5328 115.054C90.4604 115.03 90.386 114.976 90.3418 114.887L91.2734 114.425ZM90.3241 114.107L87.1184 115.69L87.5811 116.619L90.7863 115.036L90.3241 114.107ZM87.8684 116.198C87.9033 115.777 88.0344 115.324 88.2161 114.827C88.3066 114.58 88.4066 114.33 88.5096 114.07C88.6122 113.814 88.7178 113.548 88.8146 113.281C89.1962 112.232 89.5053 111.014 88.9156 109.834L87.9834 110.296C88.366 111.061 88.2072 111.908 87.8361 112.928C87.745 113.178 87.6451 113.429 87.542 113.688C87.44 113.944 87.3344 114.208 87.2381 114.472C87.0465 114.997 86.8774 115.552 86.831 116.112L87.8684 116.198ZM88.9156 109.834C88.2369 108.475 86.715 108.298 85.5647 108.868L86.0284 109.797C86.8238 109.403 87.6336 109.596 87.9834 110.296L88.9156 109.834ZM85.5647 108.868C85.0619 109.118 84.5612 109.514 84.2942 110.108L85.2441 110.532C85.3804 110.228 85.6589 109.98 86.0284 109.797L85.5647 108.868ZM84.2952 110.106C84.0615 110.619 84.0193 111.29 84.2962 111.844L85.2285 111.382C85.1134 111.152 85.1165 110.813 85.243 110.534L84.2952 110.106ZM84.2962 111.844C84.4482 112.148 84.8594 112.359 85.2446 112.168L84.7808 111.24C84.888 111.186 84.9911 111.199 85.0567 111.224C85.1191 111.248 85.1858 111.297 85.2285 111.382L84.2962 111.844ZM85.2446 112.168C85.408 112.087 85.5522 111.946 85.611 111.739C85.6605 111.565 85.6287 111.409 85.6094 111.332L84.5981 111.577C84.6049 111.605 84.5841 111.546 84.6091 111.457C84.6236 111.406 84.6507 111.355 84.6887 111.312C84.7251 111.271 84.761 111.249 84.7808 111.24L85.2446 112.168ZM85.6105 111.335C85.5517 111.088 85.5272 111.008 85.5246 110.921C85.523 110.876 85.5262 110.814 85.6006 110.677L84.6845 110.184C84.5398 110.451 84.4748 110.694 84.4841 110.957C84.4919 111.178 84.5575 111.407 84.5976 111.574L85.6105 111.335ZM85.6027 110.673C85.7161 110.458 85.9301 110.27 86.1986 110.137L85.7349 109.208C85.3294 109.409 84.9245 109.732 84.6825 110.188L85.6027 110.673ZM86.1986 110.137C86.4995 109.988 86.8113 109.946 87.0647 110.001C87.3037 110.052 87.5108 110.192 87.6461 110.463L88.5783 110.001C88.2962 109.436 87.8195 109.103 87.2849 108.987C86.7644 108.875 86.2117 108.972 85.7349 109.208L86.1986 110.137ZM87.6461 110.463C87.9923 111.156 87.7914 111.996 87.3755 113.091C87.1813 113.602 86.9367 114.18 86.7556 114.731C86.5718 115.29 86.4292 115.886 86.4464 116.483L87.4869 116.454C87.4749 116.031 87.5759 115.567 87.745 115.054C87.9168 114.531 88.1344 114.023 88.3488 113.459C88.7496 112.404 89.1509 111.147 88.5783 110.001L87.6461 110.463ZM86.448 116.511C86.4563 116.609 86.4854 116.701 86.5224 116.775L87.4541 116.313C87.4634 116.332 87.4697 116.348 87.4744 116.363C87.4785 116.378 87.4832 116.399 87.4858 116.426L86.448 116.511ZM86.5224 116.775C86.6978 117.126 87.1204 117.267 87.4728 117.092L87.0091 116.164C87.1709 116.083 87.3734 116.151 87.4541 116.313L86.5224 116.775ZM87.4723 117.092L90.9544 115.371L90.4917 114.443L87.0096 116.164L87.4723 117.092Z" fill="black"/>
<path d="M96.6444 111.416C96.7282 111.358 96.7501 111.238 96.6928 111.155L92.7241 105.414C92.6856 105.359 92.5617 105.298 92.4977 105.342C92.442 105.38 92.4024 105.407 92.3857 105.476L91.8627 107.629C91.8491 107.685 91.858 107.732 91.8934 107.783C91.9319 107.838 92.0532 107.895 92.1167 107.852C92.1645 107.819 92.2161 107.783 92.2312 107.721L92.6522 105.972L96.3826 111.367C96.4404 111.451 96.5611 111.473 96.6444 111.416Z" fill="black"/>
<path d="M92.3857 105.477L92.8917 105.599L92.8927 105.595L92.3857 105.477ZM91.8626 107.629L92.368 107.752L92.3686 107.751L91.8626 107.629ZM92.2312 107.721L91.7252 107.6L92.2312 107.721ZM92.6522 105.972L93.0806 105.678L92.418 104.719L92.1458 105.851L92.6522 105.972ZM96.9395 111.842C97.2601 111.623 97.3419 111.18 97.1217 110.86L96.2639 111.449C96.2077 111.367 96.1957 111.276 96.2098 111.201C96.2233 111.126 96.267 111.045 96.3493 110.988L96.9395 111.842ZM97.1217 110.86L93.1524 105.12L92.2952 105.708L96.2639 111.449L97.1217 110.86ZM93.1524 105.12C93.0561 104.98 92.9146 104.897 92.8063 104.856C92.7178 104.823 92.4534 104.742 92.2025 104.914L92.7933 105.768C92.6944 105.836 92.5976 105.846 92.544 105.845C92.4904 105.844 92.4529 105.832 92.4341 105.825C92.4144 105.817 92.3961 105.807 92.379 105.795C92.3649 105.786 92.33 105.759 92.2952 105.708L93.1524 105.12ZM92.2025 104.914C92.15 104.951 91.9454 105.076 91.8793 105.358L92.8927 105.595C92.888 105.616 92.8786 105.644 92.8625 105.675C92.8459 105.706 92.8266 105.731 92.8084 105.75C92.7912 105.768 92.7782 105.779 92.7756 105.78C92.7751 105.781 92.7766 105.78 92.7933 105.768L92.2025 104.914ZM91.8803 105.355L91.3567 107.507L92.3686 107.751L92.8917 105.599L91.8803 105.355ZM91.3572 107.505C91.3359 107.592 91.3265 107.695 91.3484 107.807C91.3703 107.917 91.4161 108.007 91.4645 108.077L92.3217 107.489C92.3347 107.508 92.3587 107.549 92.3706 107.609C92.3826 107.67 92.3758 107.722 92.368 107.752L91.3572 107.505ZM91.4645 108.077C91.5628 108.219 91.706 108.301 91.8168 108.342C91.9121 108.376 92.1687 108.446 92.4118 108.279L91.8215 107.425C91.9152 107.36 92.0079 107.348 92.062 107.349C92.1156 107.349 92.1541 107.36 92.1744 107.368C92.1963 107.375 92.2161 107.386 92.2348 107.399C92.2509 107.411 92.2863 107.438 92.3217 107.489L91.4645 108.077ZM92.4118 108.279C92.4295 108.267 92.6689 108.128 92.7376 107.841L91.7252 107.6C91.7455 107.515 91.7898 107.459 91.8168 107.432C91.8293 107.42 91.8377 107.413 91.8382 107.413C91.8382 107.413 91.8377 107.414 91.8345 107.416C91.8314 107.418 91.8278 107.42 91.8215 107.425L92.4118 108.279ZM92.7376 107.841L93.1581 106.093L92.1458 105.851L91.7252 107.6L92.7376 107.841ZM92.2233 106.266L95.9537 111.661L96.8115 111.073L93.0806 105.678L92.2233 106.266ZM95.9537 111.661C96.1744 111.981 96.6194 112.062 96.9395 111.842L96.3493 110.988C96.4315 110.932 96.5231 110.92 96.5981 110.934C96.673 110.948 96.7547 110.991 96.8115 111.073L95.9537 111.661Z" fill="black"/>
</g>
<defs>
<clipPath id="clip0">
<rect width="127" height="126" fill="white"/>
</clipPath>
</defs>
</svg>
