<svg width="58" height="58" viewBox="0 0 58 58" fill="none" xmlns="http://www.w3.org/2000/svg">
<path d="M55.2812 32.1718H37.1562V21.2969H48.0312L55.2812 32.1718Z" fill="#ED6D64"/>
<path d="M56.1873 32.1718H37.1562V40.3281H56.1873V32.1718Z" fill="#FBB03B"/>
<path d="M55.2812 32.1718H45.3124V21.2969H48.0311L55.2812 32.1718Z" fill="#E9483D"/>
<path d="M48.0311 21.2969H42.5936V28.5468H53.4686L48.0311 21.2969Z" fill="white"/>
<path d="M56.1874 32.1718H45.3124V40.3281H56.1874V32.1718Z" fill="#F7931E"/>
<path d="M34.4375 41.2342H0.906342V14.0468H28.7904C31.9092 14.0468 34.4375 16.5751 34.4375 19.694V41.2342Z" fill="#ED6D64"/>
<path d="M47.5781 46.6717C49.8303 46.6717 51.6562 44.8459 51.6562 42.5936C51.6562 40.3414 49.8303 38.5156 47.5781 38.5156C45.3258 38.5156 43.5 40.3414 43.5 42.5936C43.5 44.8459 45.3258 46.6717 47.5781 46.6717Z" fill="#E9483D"/>
<path d="M47.5781 46.6717C45.3258 46.6717 43.5 44.8459 43.5 42.5936C43.5 40.3414 45.3258 38.5156 47.5781 38.5156" fill="#ED6D64"/>
<path d="M57.0937 37.6093H51.6562V41.2344H57.0937V37.6093Z" fill="#E9483D"/>
<path d="M34.4374 14.0468H9.96875V41.2342H34.4374V14.0468Z" fill="#E9483D"/>
<path d="M34.4384 30.3833H0.000976562V41.2342H34.4384V30.3833Z" fill="#FBB03B"/>
<path d="M3.62513 14.0469H1.81256V41.2344H3.62513V14.0469Z" fill="white"/>
<path d="M34.4375 41.2342H11.0668C10.4604 41.2342 9.96875 40.7426 9.96875 40.1362V30.3833H34.4375V41.2342Z" fill="#F7931E"/>
<path d="M18.125 46.6717C21.1281 46.6717 23.5625 44.2373 23.5625 41.2342C23.5625 38.2312 21.1281 35.7968 18.125 35.7968C15.122 35.7968 12.6875 38.2312 12.6875 41.2342C12.6875 44.2373 15.122 46.6717 18.125 46.6717Z" fill="#E9483D"/>
<path d="M18.125 46.6717C15.122 46.6717 12.6875 44.2373 12.6875 41.2342C12.6875 38.2312 15.122 35.7968 18.125 35.7968" fill="#ED6D64"/>
<path d="M18.125 43.9531C19.6266 43.9531 20.8438 42.7358 20.8438 41.2342C20.8438 39.7327 19.6266 38.5154 18.125 38.5154C16.6235 38.5154 15.4062 39.7327 15.4062 41.2342C15.4062 42.7358 16.6235 43.9531 18.125 43.9531Z" fill="#F7931E"/>
<path d="M18.125 43.953C16.6234 43.953 15.4062 42.7358 15.4062 41.2344C15.4062 39.7328 16.6234 38.5156 18.125 38.5156" fill="#FBB03B"/>
<path d="M18.125 44.8593C16.1262 44.8593 14.5 43.2332 14.5 41.2344C14.5 39.2356 16.1262 37.6095 18.125 37.6095C20.1238 37.6095 21.7501 39.2356 21.7501 41.2344C21.7501 43.2332 20.1238 44.8593 18.125 44.8593ZM18.125 39.4218C17.1256 39.4218 16.3126 40.2349 16.3126 41.2343C16.3126 42.2337 17.1256 43.0468 18.125 43.0468C19.1244 43.0468 19.9375 42.2338 19.9375 41.2343C19.9375 40.2349 19.1244 39.4218 18.125 39.4218Z" fill="#1D1D1B"/>
<path d="M47.5781 43.9531C48.3289 43.9531 48.9375 43.3444 48.9375 42.5937C48.9375 41.8429 48.3289 41.2343 47.5781 41.2343C46.8273 41.2343 46.2187 41.8429 46.2187 42.5937C46.2187 43.3444 46.8273 43.9531 47.5781 43.9531Z" fill="#F7931E"/>
<path d="M47.5781 44.8593C46.3288 44.8593 45.3124 43.8429 45.3124 42.5936C45.3124 41.3443 46.3289 40.328 47.5781 40.328C48.8273 40.328 49.8437 41.3443 49.8437 42.5936C49.8437 43.8429 48.8273 44.8593 47.5781 44.8593ZM47.5781 42.1405C47.3282 42.1405 47.125 42.3437 47.125 42.5936C47.125 42.8435 47.3283 43.0468 47.5781 43.0468C47.828 43.0468 48.0311 42.8435 48.0311 42.5936C48.0311 42.3437 47.8279 42.1405 47.5781 42.1405Z" fill="#1D1D1B"/>
<path d="M44.4061 31.2656H41.6874V33.0781H44.4061V31.2656Z" fill="#1D1D1B"/>
<path d="M45.3125 17.6719H35.3437V13.1407H0V42.1406H11.847C12.2882 45.2106 14.9348 47.5781 18.125 47.5781C21.3152 47.5781 23.9618 45.2106 24.403 42.1406H35.3437V19.4843H45.3125V17.6719ZM18.125 45.7655C15.6265 45.7655 13.5939 43.7327 13.5939 41.2342C13.5939 38.7358 15.6265 36.703 18.125 36.703C20.6235 36.703 22.6562 38.7358 22.6562 41.2342C22.6562 43.7329 20.6235 45.7655 18.125 45.7655ZM33.5311 40.328H24.403C23.9618 37.258 21.3152 34.8905 18.125 34.8905C14.9348 34.8905 12.2882 37.258 11.847 40.328H1.81257V31.2655H33.5311V40.328ZM33.5311 29.4531H1.81257V14.9532H33.5311V17.6719H28.0938V19.4843H33.5311V29.4531Z" fill="#1D1D1B"/>
<path d="M57.9999 36.7031H50.7498V38.7516C49.8874 38.0384 48.7819 37.6093 47.578 37.6093C45.6451 37.6093 43.967 38.7159 43.1405 40.328H38.0623V33.0781H39.8747V31.2656H38.0623V22.2031H41.6873V29.4531H52.6815L53.8898 31.2656H46.2184V33.0781H55.0981L55.281 33.3525V36.7031H57.0935V32.8038L53.3164 27.1378L48.4974 20.3908H36.2499V42.1406H42.6152C42.6017 42.29 42.5937 42.4409 42.5937 42.5938C42.5937 45.3422 44.8297 47.5781 47.5781 47.5781C50.3265 47.5781 52.5625 45.3422 52.5625 42.5938C52.5625 42.4409 52.5545 42.29 52.541 42.1406H58V36.7031H57.9999ZM51.4489 27.6406H43.5V22.2031H47.5648L51.4489 27.6406ZM47.5781 45.7655C45.8291 45.7655 44.4062 44.3427 44.4062 42.5937C44.4062 40.8447 45.8291 39.4218 47.5781 39.4218C49.3271 39.4218 50.7499 40.8448 50.7499 42.5937C50.7498 44.3427 49.327 45.7655 47.5781 45.7655ZM56.1873 40.328H52.5624V38.5156H56.1873V40.328Z" fill="#1D1D1B"/>
<path d="M9.96873 43.0468H1.81256V44.8593H9.96873V43.0468Z" fill="#1D1D1B"/>
<path d="M11.7813 45.7655H8.15628V47.578H11.7813V45.7655Z" fill="#1D1D1B"/>
<path d="M41.6874 43.953H29.9062V45.7655H41.6874V43.953Z" fill="#1D1D1B"/>
<path d="M29.9064 21.2969H25.3751V23.1093H29.9064V21.2969Z" fill="#1D1D1B"/>
<path d="M26.2812 17.6718H22.6563V19.4843H26.2812V17.6718Z" fill="#1D1D1B"/>
<path d="M12.6874 20.3907H6.34372V22.2031H12.6874V20.3907Z" fill="#1D1D1B"/>
<path d="M16.3125 23.1093H11.7813V24.9218H16.3125V23.1093Z" fill="#1D1D1B"/>
<path d="M13.5938 25.8281H2.71881V27.6406H13.5938V25.8281Z" fill="#1D1D1B"/>
<path d="M39.8751 22.2031H38.0625V31.2655H39.8751V22.2031Z" fill="white"/>
<path d="M39.8751 33.0781H38.0625V40.328H39.8751V33.0781Z" fill="white"/>
<path d="M16.3126 10.4219H1.81256V12.2344H16.3126V10.4219Z" fill="#1D1D1B"/>
</svg>
